<?xml version="1.0" encoding="utf-8"?>
<!-- Generator: Adobe Illustrator 17.1.0, SVG Export Plug-In . SVG Version: 6.00 Build 0)  -->
<!DOCTYPE svg PUBLIC "-//W3C//DTD SVG 1.1//EN" "http://www.w3.org/Graphics/SVG/1.1/DTD/svg11.dtd">
<svg version="1.1" id="Layer_1" xmlns="http://www.w3.org/2000/svg" xmlns:xlink="http://www.w3.org/1999/xlink" x="0px" y="0px"
	 width="409.9px" height="52.2px" viewBox="0 0 409.9 52.2" enable-background="new 0 0 409.9 52.2" xml:space="preserve">
<polyline fill="none" stroke-width="3" stroke-miterlimit="10" points="408.9,22.3 385.2,1.9 357.9,22.1 
	334.2,1.9 306.9,22.3 283.2,1.9 255.9,22.1 232.2,1.9 204.9,22.3 "/>
<polyline fill="none" stroke-width="3" stroke-miterlimit="10" points="408.9,50.3 385.2,29.9 357.9,50.1 
	334.2,29.9 306.9,50.3 283.2,29.9 255.9,50.1 232.2,29.9 204.9,50.3 "/>
<polyline fill="none" stroke-width="3" stroke-miterlimit="10" points="204.9,22.3 181.2,1.9 153.9,22.1 
	130.2,1.9 102.9,22.3 79.2,1.9 51.9,22.1 28.2,1.9 0.9,22.3 "/>
<polyline fill="none" stroke-width="3" stroke-miterlimit="10" points="204.9,50.3 181.2,29.9 153.9,50.1 
	130.2,29.9 102.9,50.3 79.2,29.9 51.9,50.1 28.2,29.9 0.9,50.3 "/>
</svg>
