<?xml version="1.0" encoding="utf-8"?>
<!-- Generator: Adobe Illustrator 16.0.0, SVG Export Plug-In . SVG Version: 6.00 Build 0)  -->
<!DOCTYPE svg PUBLIC "-//W3C//DTD SVG 1.1//EN" "http://www.w3.org/Graphics/SVG/1.1/DTD/svg11.dtd">
<svg version="1.1" id="Layer_1" xmlns="http://www.w3.org/2000/svg" xmlns:xlink="http://www.w3.org/1999/xlink" x="0px" y="0px"
	 width="59.5px" height="59.5px" viewBox="0 0 59.5 59.5" enable-background="new 0 0 59.5 59.5" xml:space="preserve">
<g>
	<path d="M53.5,4c1.103,0,2,0.897,2,2v47.5c0,1.103-0.897,2-2,2H6c-1.103,0-2-0.897-2-2V6c0-1.103,0.897-2,2-2H53.5 M53.5,0H6
		C2.687,0,0,2.687,0,6v47.5c0,3.313,2.687,6,6,6h47.5c3.313,0,6-2.687,6-6V6C59.5,2.687,56.813,0,53.5,0L53.5,0z"/>
</g>
<path d="M56.75,22.25H39.401c-2.314-2.985-5.836-4.75-9.651-4.75c-3.815,0-7.337,1.765-9.651,4.75H1.25v4h16.766
	c-0.339,1.13-0.516,2.308-0.516,3.5C17.5,36.505,22.995,42,29.75,42S42,36.505,42,29.75c0-1.192-0.177-2.37-0.516-3.5H56.75V22.25z
	 M29.75,38c-4.549,0-8.25-3.701-8.25-8.25c0-1.565,0.448-3.095,1.296-4.424c1.528-2.396,4.128-3.826,6.954-3.826
	c2.826,0,5.426,1.43,6.953,3.826C37.552,26.655,38,28.185,38,29.75C38,34.299,34.299,38,29.75,38z"/>
<path d="M51,12.5c0,1.104-0.896,2-2,2h-3c-1.104,0-2-0.896-2-2V9.75c0-1.104,0.896-2,2-2h3c1.104,0,2,0.896,2,2V12.5z"/>
</svg>
