<?xml version="1.0" encoding="utf-8"?>
<!-- Generator: Adobe Illustrator 17.1.0, SVG Export Plug-In . SVG Version: 6.00 Build 0)  -->
<!DOCTYPE svg PUBLIC "-//W3C//DTD SVG 1.1//EN" "http://www.w3.org/Graphics/SVG/1.1/DTD/svg11.dtd">
<svg version="1.1" id="Layer_1" xmlns="http://www.w3.org/2000/svg" xmlns:xlink="http://www.w3.org/1999/xlink" x="0px" y="0px"
	 width="170.6px" height="42.6px" viewBox="0 0 170.6 42.6" enable-background="new 0 0 170.6 42.6" xml:space="preserve">
<g>
	<path fill="#FFFFFF" d="M167.1,42.1l-6.5-9.9v9.9h-3.8V25.6h4l6.1,9.3v-9.3h3.8v16.6H167.1z"/>
	<path fill="#FFFFFF" d="M140.8,42.1V25.6h4.1v16.6H140.8z"/>
	<path fill="#FFFFFF" d="M125.1,42.4c-5,0-8-3.4-8-8.5c0-5.1,3.2-8.6,7.9-8.6c1.9,0,3.4,0.4,4.6,1.1l-0.6,3.7
		c-1-0.8-2.3-1.3-3.7-1.3c-2.5,0-4.1,1.9-4.1,5.1c0,3.3,1.8,5.1,4.3,5.1c1.3,0,2.5-0.5,3.8-1.2l0.5,3.4
		C128.5,41.9,126.9,42.4,125.1,42.4z"/>
	<path fill="#FFFFFF" d="M98,42.1V25.6h4.1v13h5.1l0.6,3.6H98z"/>
	<path fill="#FFFFFF" d="M78.8,32.6l3,6.7h-5.9L78.8,32.6 M78.8,25.3l-8.9,17.3h17.7L78.8,25.3L78.8,25.3z"/>
	<path fill="#FFFFFF" d="M55.5,35.3l-3-6.7h5.9L55.5,35.3 M55.5,42.6l8.9-17.3H46.6L55.5,42.6L55.5,42.6z"/>
	<path fill="#FFFFFF" d="M30.7,42.4c-4.8,0-7.9-3.5-7.9-8.6c0-5.1,3.1-8.6,7.9-8.6c4.8,0,7.9,3.5,7.9,8.6
		C38.6,38.9,35.5,42.4,30.7,42.4z M30.7,28.5c-2.4,0-3.8,2.1-3.8,5.4c0,3.3,1.4,5.4,3.8,5.4c2.4,0,3.8-2.1,3.8-5.4
		C34.5,30.6,33.1,28.5,30.7,28.5z"/>
	<path fill="#FFFFFF" d="M9.7,42.3l-5.6-7.9v7.7H0V25.6h4.1v7.1l5.2-7.1h4.6L8,33.2l6.1,8.4L9.7,42.3z"/>
</g>
<g>
	<path fill="#FFFFFF" d="M87.6,17.3V0.8H98v3.3h-6.3v3h4.8l0.5,3.4h-5.3V14h6.5v3.3H87.6z"/>
	<path fill="#FFFFFF" d="M71.7,17.3V0.8h4.1v16.6H71.7z"/>
	<path fill="#FFFFFF" d="M56.3,4.3v13.1h-4.1V4.3h-4.6V0.8h13.1l0.6,3.5H56.3z"/>
	<path fill="#FFFFFF" d="M32.2,7.3l3,6.7h-5.9L32.2,7.3 M32.2,0l-8.9,17.3H41L32.2,0L32.2,0z"/>
	<path fill="#FFFFFF" d="M9.7,17.5L4.1,9.6v7.7H0V0.8h4.1v7.1l5.2-7.1h4.6L8,8.4l6.1,8.4L9.7,17.5z"/>
</g>
</svg>
