<?xml version="1.0" encoding="utf-8"?>
<!-- Generator: Adobe Illustrator 17.1.0, SVG Export Plug-In . SVG Version: 6.00 Build 0)  -->
<!DOCTYPE svg PUBLIC "-//W3C//DTD SVG 1.1//EN" "http://www.w3.org/Graphics/SVG/1.1/DTD/svg11.dtd">
<svg version="1.1" id="_x2014_ÎÓÈ_x5F_1" xmlns="http://www.w3.org/2000/svg" xmlns:xlink="http://www.w3.org/1999/xlink"
	 x="0px" y="0px" width="850.4px" height="850.4px" viewBox="0 0 850.4 850.4" enable-background="new 0 0 850.4 850.4"
	 xml:space="preserve">
<g>
	<path fill="#231F20" d="M8.5,294.2c0-1.8-0.7-3.5-1.8-4.8l46.1-46.1c1.2,1,2.8,1.5,4.4,1.5c4,0,7.2-3.2,7.2-7.2
		c0-1.7-0.6-3.2-1.5-4.4l14.3-14.3c0.3,0,0.5,0.1,0.8,0.1c2.8,0,5.1-2.3,5.1-5.1c0-0.3,0-0.6-0.1-0.8l57-57c1.6,1.1,3.6,1.8,5.7,1.8
		c5.6,0,10.1-4.5,10.1-10.1c0-2.1-0.7-4.1-1.8-5.7l32.4-32.4c0.9,0.9,2.2,1.4,3.6,1.4c2.8,0,5.1-2.3,5.1-5.1c0-1.4-0.6-2.6-1.4-3.6
		l2.1-2.1c1.8,1.1,4,1.8,6.3,1.8c6.6,0,12-5.4,12-12c0-2.3-0.6-4.5-1.8-6.3L234,62.2c1.7,1.2,3.7,1.9,5.9,1.9
		c5.6,0,10.1-4.5,10.1-10.1c0-2.2-0.7-4.2-1.9-5.9L288.2,8c1.7,1.3,3.9,2.1,6.2,2.1c5.6,0,10.1-4.5,10.1-10.1h-20.2
		c0,2.9,1.2,5.5,3.1,7.3l-40,40c-1.9-2.1-4.6-3.4-7.6-3.4c-5.6,0-10.1,4.5-10.1,10.1c0,3,1.3,5.7,3.4,7.6l-21.4,21.4
		c-2.2-3-5.7-4.9-9.7-4.9c-6.6,0-12,5.4-12,12c0,4,1.9,7.5,4.9,9.7l-2,2c-0.8-0.6-1.8-0.9-2.9-0.9c-2.8,0-5.1,2.3-5.1,5.1
		c0,1.1,0.3,2.1,0.9,2.9l-32.4,32.4c-1.9-2.2-4.6-3.6-7.7-3.6c-5.6,0-10.1,4.5-10.1,10.1c0,3.1,1.4,5.9,3.6,7.7L82.8,212
		c-0.8-1.9-2.6-3.2-4.7-3.2c-2.8,0-5.1,2.3-5.1,5.1c0,2.1,1.3,4,3.2,4.7l-13.9,13.9c-1.3-1.3-3.1-2-5-2c-4,0-7.2,3.2-7.2,7.2
		c0,2,0.8,3.7,2,5l-46,46c-1.3-1.1-2.9-1.8-4.7-1.8c-0.4,0-0.9,0-1.3,0.1v14.2c0.4,0.1,0.8,0.1,1.3,0.1
		C5.3,301.5,8.5,298.2,8.5,294.2z"/>
	<path fill="#231F20" d="M6.4,189c0-1.3-0.5-2.5-1.3-3.4l43.5-43.5c2.2,2.3,5.2,3.7,8.6,3.7c6.6,0,12-5.4,12-12
		c0-3.4-1.4-6.5-3.7-8.6l12.6-12.6c1,0.6,2.2,1,3.4,1c3.5,0,6.4-2.9,6.4-6.4c0-1.3-0.4-2.4-1-3.4l11-11c0.7,0.3,1.4,0.5,2.1,0.5
		c2.8,0,5.1-2.3,5.1-5.1c0-0.8-0.2-1.5-0.5-2.1l30.3-30.3c1.1,0.7,2.3,1.1,3.6,1.1c3.8,0,6.9-3.1,6.9-6.9c0-1.3-0.4-2.6-1.1-3.6
		l16.6-16.6c0.5,0.2,1,0.3,1.6,0.3c2.8,0,5.1-2.3,5.1-5.1c0-0.6-0.1-1.1-0.3-1.6L190.8,0h-1.4l-22.2,22.2c-0.9-1.5-2.5-2.5-4.4-2.5
		c-2.8,0-5.1,2.3-5.1,5.1c0,1.9,1,3.5,2.5,4.4l-16.2,16.2c-1.3-1.5-3.1-2.4-5.2-2.4c-3.8,0-6.9,3.1-6.9,6.9c0,2.1,0.9,4,2.4,5.2
		l-30,30c-0.9-1.3-2.4-2.1-4.1-2.1c-2.8,0-5.1,2.3-5.1,5.1c0,1.7,0.8,3.2,2.1,4.1L86.4,103c-1.2-1.3-2.9-2.2-4.8-2.2
		c-3.5,0-6.4,2.9-6.4,6.4c0,1.9,0.8,3.6,2.2,4.8l-12.5,12.5c-2.1-1.7-4.7-2.7-7.6-2.7c-6.6,0-12,5.4-12,12c0,2.9,1,5.5,2.7,7.6
		L4.4,185c-0.9-0.7-1.9-1.1-3.1-1.1c-0.4,0-0.9,0.1-1.3,0.2v9.9c0.4,0.1,0.8,0.2,1.3,0.2C4.1,194.1,6.4,191.8,6.4,189z"/>
	<path fill="#231F20" d="M6.1,0H0v9.6C3.6,7.9,6.1,4.2,6.1,0z"/>
	<path fill="#231F20" d="M22.8,144c5.6,0,10.1-4.5,10.1-10.1c0-2.5-0.9-4.7-2.3-6.5l25.3-25.3c0.9,0.8,2.1,1.3,3.4,1.3
		c2.8,0,5.1-2.3,5.1-5.1c0-1.3-0.5-2.5-1.3-3.4l27.7-27.7c1.8,1.8,4.3,2.9,7.1,2.9c5.6,0,10.1-4.5,10.1-10.1c0-2.8-1.1-5.3-2.9-7.1
		l23.5-23.5c2,1.5,4.4,2.3,7.1,2.3c6.6,0,12-5.4,12-12c0-2.7-0.9-5.1-2.3-7.1L158,0h-1.4l-11.8,11.8c-2.2-2.5-5.4-4.1-9-4.1
		c-6.6,0-12,5.4-12,12c0,3.6,1.6,6.8,4.1,9l-23.5,23.5c-1.8-1.5-4-2.3-6.5-2.3c-5.6,0-10.1,4.5-10.1,10.1c0,2.5,0.9,4.7,2.3,6.5
		L62.4,94.3c-0.8-0.6-1.9-1-3-1c-2.8,0-5.1,2.3-5.1,5.1c0,1.1,0.4,2.2,1,3L30,126.7c-1.8-1.8-4.3-2.9-7.1-2.9
		c-5.6,0-10.1,4.5-10.1,10.1c0,2.8,1.1,5.3,2.9,7.1L0,156.6v1.4l16.4-16.4C18.1,143.1,20.4,144,22.8,144z"/>
	<path fill="#231F20" d="M25.2,331.5c3.8,0,6.9-3.1,6.9-6.9c0-1.7-0.6-3.2-1.6-4.4l9.4-9.4c2.2,2.4,5.4,3.9,8.9,3.9
		c6.6,0,12-5.4,12-12c0-3.5-1.5-6.7-3.9-8.9L75.7,275c0.2,0,0.5,0.1,0.7,0.1c2.8,0,5.1-2.3,5.1-5.1c0-0.2,0-0.5-0.1-0.7l35.1-35.1
		c0.9,0.9,2.1,1.4,3.5,1.4c2.8,0,5.1-2.3,5.1-5.1c0-1.4-0.5-2.6-1.4-3.5l16.7-16.7c2.1,3.5,5.9,5.8,10.3,5.8c6.6,0,12-5.4,12-12
		c0-4.4-2.3-8.2-5.8-10.3l44.2-44.2c1.2,1.2,2.9,1.9,4.7,1.9c3.8,0,6.9-3.1,6.9-6.9c0-1.8-0.7-3.5-1.9-4.7l8.8-8.8
		c1.8,1.6,4.2,2.7,6.8,2.7c5.6,0,10.1-4.5,10.1-10.1c0-2.6-1-5-2.7-6.8l3.6-3.6c0.8,1.7,2.6,2.8,4.6,2.8c2.8,0,5.1-2.3,5.1-5.1
		c0-2-1.2-3.7-2.8-4.6l15.1-15.1c1.2,2.2,3.4,3.7,6.1,3.7c3.8,0,6.9-3.1,6.9-6.9c0-2.6-1.5-4.9-3.7-6.1l16.7-16.7c0.9,1.2,2.4,2,4,2
		c2.8,0,5.1-2.3,5.1-5.1c0-1.6-0.8-3.1-2-4L322.7,28c0.9,0.4,1.8,0.6,2.8,0.6c3.8,0,6.9-3.1,6.9-6.9c0-1-0.2-1.9-0.6-2.8L350.7,0
		h-1.4l-18,18c-1.2-1.9-3.3-3.2-5.8-3.2c-3.8,0-6.9,3.1-6.9,6.9c0,2.4,1.3,4.6,3.2,5.8l-30.3,30.3c-0.7-0.3-1.4-0.5-2.2-0.5
		c-2.8,0-5.1,2.3-5.1,5.1c0,0.8,0.2,1.6,0.5,2.2l-17.1,17.1c-0.7-0.2-1.4-0.4-2.2-0.4c-3.8,0-6.9,3.1-6.9,6.9c0,0.8,0.1,1.5,0.4,2.2
		l-15.7,15.7c-0.4-0.1-0.8-0.2-1.2-0.2c-2.8,0-5.1,2.3-5.1,5.1c0,0.4,0.1,0.8,0.2,1.2l-4,4c-1.8-1.6-4.2-2.6-6.8-2.6
		c-5.6,0-10.1,4.5-10.1,10.1c0,2.6,1,5,2.6,6.8l-8.8,8.8c-1.2-0.9-2.6-1.5-4.3-1.5c-3.8,0-6.9,3.1-6.9,6.9c0,1.6,0.6,3.1,1.5,4.3
		L156,193.3c-1.6-0.8-3.4-1.2-5.2-1.2c-6.6,0-12,5.4-12,12c0,1.9,0.4,3.7,1.2,5.2L123,226.3c-0.8-0.6-1.8-0.9-2.9-0.9
		c-2.8,0-5.1,2.3-5.1,5.1c0,1.1,0.4,2.1,0.9,2.9l-34.7,34.7c-0.7-1.9-2.6-3.2-4.7-3.2c-2.8,0-5.1,2.3-5.1,5.1c0,2.2,1.3,4,3.2,4.7
		L56,293.3c-2-1.6-4.6-2.5-7.3-2.5c-6.6,0-12,5.4-12,12c0,2.7,0.9,5.3,2.5,7.3l-9.4,9.4c-1.2-1.1-2.8-1.7-4.5-1.7
		c-3.8,0-6.9,3.1-6.9,6.9c0,1.7,0.7,3.3,1.7,4.5L0,349.3v1.4l20.8-20.8C22,330.9,23.5,331.5,25.2,331.5z"/>
	<path fill="#231F20" d="M24.7,64.1c6.6,0,12-5.4,12-12c0-4.3-2.3-8.1-5.7-10.2l12.9-12.9c0.8,0.6,1.9,1,3,1c2.8,0,5.1-2.3,5.1-5.1
		c0-1.1-0.4-2.1-1-3L67.3,5.6c1.1,0.8,2.5,1.3,4,1.3c3.8,0,6.9-3.1,6.9-6.9H64.4c0,1.9,0.8,3.7,2.1,4.9L50.4,21.1
		c-0.9-0.8-2.1-1.4-3.5-1.4c-2.8,0-5.1,2.3-5.1,5.1c0,1.3,0.5,2.6,1.4,3.5L30.1,41.4c-1.6-0.8-3.4-1.3-5.4-1.3c-6.6,0-12,5.4-12,12
		c0,1.9,0.5,3.8,1.3,5.4l-14,14v1.4l14.5-14.5C16.6,61.8,20.4,64.1,24.7,64.1z"/>
	<path fill="#231F20" d="M809.5,384.4c-5.6,0-10.1,4.5-10.1,10.1c0,1.7,0.4,3.2,1.1,4.6l-26,26h0l-18,18c-1.2-1.9-3.3-3.2-5.8-3.2
		c-3.8,0-6.9,3.1-6.9,6.9c0,2.4,1.3,4.6,3.2,5.8l-30.3,30.3c-0.7-0.3-1.4-0.5-2.2-0.5c-2.8,0-5.1,2.3-5.1,5.1c0,0.8,0.2,1.6,0.5,2.2
		l-17.1,17.1c-0.7-0.2-1.4-0.4-2.2-0.4c-3.8,0-6.9,3.1-6.9,6.9c0,0.8,0.1,1.5,0.4,2.2l-15.7,15.7c-0.4-0.1-0.8-0.2-1.2-0.2
		c-2.8,0-5.1,2.3-5.1,5.1c0,0.4,0.1,0.8,0.2,1.2l-4,4c-1.8-1.6-4.2-2.6-6.8-2.6c-5.6,0-10.1,4.5-10.1,10.1c0,2.6,1,5,2.6,6.8
		l-8.8,8.8c-1.2-0.9-2.6-1.5-4.3-1.5c-3.8,0-6.9,3.1-6.9,6.9c0,1.6,0.6,3.1,1.5,4.3l-44.4,44.4c-1.6-0.8-3.4-1.2-5.2-1.2
		c-6.6,0-12,5.4-12,12c0,1.9,0.4,3.7,1.2,5.2l-16.9,16.9c-0.8-0.6-1.8-0.9-2.9-0.9c-2.8,0-5.1,2.3-5.1,5.1c0,1.1,0.4,2.1,0.9,2.9
		l-34.7,34.7c-0.7-1.9-2.6-3.2-4.7-3.2c-2.8,0-5.1,2.3-5.1,5.1c0,2.2,1.3,4,3.2,4.7l-18.6,18.6c-2-1.6-4.6-2.5-7.3-2.5
		c-6.6,0-12,5.4-12,12c0,2.7,0.9,5.3,2.5,7.3l-9.4,9.4c-1.2-1.1-2.8-1.7-4.5-1.7c-3.8,0-6.9,3.1-6.9,6.9c0,1.7,0.7,3.3,1.7,4.5
		l-20.1,20.1v0L389,810.7c-1.4-0.7-3-1.1-4.6-1.1c-5.6,0-10.1,4.5-10.1,10.1c0,1.7,0.4,3.2,1.1,4.6l-26,26h1.4l25.1-25.1
		c1.8,2.8,4.9,4.6,8.5,4.6c5.6,0,10.1-4.5,10.1-10.1c0-3.6-1.8-6.7-4.6-8.5l35.3-35.3v0l20.8-20.8c1.2,1,2.7,1.6,4.4,1.6
		c3.8,0,6.9-3.1,6.9-6.9c0-1.7-0.6-3.2-1.6-4.4l9.4-9.4c2.2,2.4,5.4,3.9,8.9,3.9c6.6,0,12-5.4,12-12c0-3.5-1.5-6.7-3.9-8.9
		l18.9-18.9c0.2,0,0.5,0.1,0.7,0.1c2.8,0,5.1-2.3,5.1-5.1c0-0.2,0-0.5-0.1-0.7l35.1-35.1c0.9,0.9,2.1,1.4,3.5,1.4
		c2.8,0,5.1-2.3,5.1-5.1c0-1.4-0.5-2.6-1.4-3.5l16.7-16.7c2.1,3.5,5.9,5.8,10.3,5.8c6.6,0,12-5.4,12-12c0-4.4-2.3-8.2-5.8-10.3
		l44.2-44.2c1.2,1.2,2.9,1.9,4.7,1.9c3.8,0,6.9-3.1,6.9-6.9c0-1.8-0.7-3.5-1.9-4.7l8.8-8.8c1.8,1.6,4.2,2.7,6.8,2.7
		c5.6,0,10.1-4.5,10.1-10.1c0-2.6-1-5-2.7-6.8l3.6-3.6c0.8,1.7,2.6,2.8,4.6,2.8c2.8,0,5.1-2.3,5.1-5.1c0-2-1.2-3.7-2.8-4.6
		l15.1-15.1c1.2,2.2,3.4,3.7,6.1,3.7c3.8,0,6.9-3.1,6.9-6.9c0-2.6-1.5-4.9-3.7-6.1l16.7-16.7c0.9,1.2,2.4,2,4,2
		c2.8,0,5.1-2.3,5.1-5.1c0-1.6-0.8-3.1-2-4l30.3-30.3c0.9,0.4,1.8,0.6,2.8,0.6c3.8,0,6.9-3.1,6.9-6.9c0-1-0.2-1.9-0.6-2.8l18.9-18.9
		h0l25.1-25.1c1.8,2.8,4.9,4.6,8.5,4.6c5.6,0,10.1-4.5,10.1-10.1c0-3.6-1.8-6.7-4.6-8.5l35.3-35.3v-1.4l-36.2,36.2
		C812.8,384.8,811.2,384.4,809.5,384.4z"/>
	<path fill="#231F20" d="M825.7,84.9c-5.6,0-10.1,4.5-10.1,10.1c0,3.1,1.4,5.8,3.5,7.7l-17.7,17.7c-1.6-1.1-3.6-1.8-5.8-1.8
		c-5.6,0-10.1,4.5-10.1,10.1c0,2.1,0.7,4.1,1.8,5.8l-11.2,11.2c-1.2-0.9-2.6-1.5-4.3-1.5c-3.8,0-6.9,3.1-6.9,6.9
		c0,1.6,0.6,3.1,1.5,4.3l-21.3,21.3c-1.2-1-2.7-1.6-4.4-1.6c-3.8,0-6.9,3.1-6.9,6.9c0,1.7,0.6,3.2,1.6,4.4l-41,41
		c-1.6-1.1-3.6-1.8-5.8-1.8c-5.6,0-10.1,4.5-10.1,10.1c0,2.1,0.7,4.1,1.8,5.8l-32,32c-0.7-0.3-1.5-0.4-2.3-0.4
		c-3.8,0-6.9,3.1-6.9,6.9c0,0.8,0.1,1.6,0.4,2.3l-21,21c-1.2-1.2-2.9-2-4.8-2c-3.8,0-6.9,3.1-6.9,6.9c0,1.9,0.8,3.6,2,4.8
		l-16.5,16.5c-1.4-0.7-3-1.1-4.6-1.1c-5.6,0-10.1,4.5-10.1,10.1c0,1.7,0.4,3.3,1.1,4.6l-54.9,54.9c-1.8-2.4-4.8-4-8.1-4
		c-5.6,0-10.1,4.5-10.1,10.1c0,3.3,1.6,6.2,4,8.1l-8.5,8.5c-1.2-1.3-3-2.1-4.9-2.1c-3.8,0-6.9,3.1-6.9,6.9c0,1.9,0.8,3.7,2.1,4.9
		l-16.2,16.2c-0.9-0.8-2.1-1.4-3.5-1.4c-2.8,0-5.1,2.3-5.1,5.1c0,1.3,0.5,2.6,1.4,3.5l-13.1,13.1c-1.6-0.8-3.4-1.3-5.4-1.3
		c-6.6,0-12,5.4-12,12c0,1.9,0.5,3.8,1.3,5.4l-14,14l-17,17c-1.9-2.2-4.6-3.5-7.7-3.5c-5.6,0-10.1,4.5-10.1,10.1
		c0,3.1,1.4,5.8,3.5,7.7l-17.7,17.7c-1.6-1.1-3.6-1.8-5.8-1.8c-5.6,0-10.1,4.5-10.1,10.1c0,2.1,0.7,4.1,1.8,5.8l-11.2,11.2
		c-1.2-0.9-2.6-1.5-4.3-1.5c-3.8,0-6.9,3.1-6.9,6.9c0,1.6,0.6,3.1,1.5,4.3l-21.3,21.3c-1.2-1-2.7-1.6-4.4-1.6
		c-3.8,0-6.9,3.1-6.9,6.9c0,1.7,0.6,3.2,1.6,4.4l-41,41c-1.6-1.1-3.6-1.8-5.8-1.8c-5.6,0-10.1,4.5-10.1,10.1c0,2.1,0.7,4.1,1.8,5.8
		l-32,32c-0.7-0.3-1.5-0.4-2.3-0.4c-3.8,0-6.9,3.1-6.9,6.9c0,0.8,0.1,1.6,0.4,2.3l-21,21c-1.2-1.2-2.9-2-4.8-2
		c-3.8,0-6.9,3.1-6.9,6.9c0,1.9,0.8,3.6,2,4.8l-16.5,16.5c-1.4-0.7-3-1.1-4.6-1.1c-5.6,0-10.1,4.5-10.1,10.1c0,1.7,0.4,3.3,1.1,4.6
		L98.9,823c-1.8-2.4-4.8-4-8.1-4c-5.6,0-10.1,4.5-10.1,10.1c0,3.3,1.6,6.2,4,8.1l-8.5,8.5c-1.2-1.3-3-2.1-4.9-2.1
		c-3.8,0-6.9,3.1-6.9,6.9h13.7c0-1.5-0.5-2.9-1.3-4l8.6-8.7c1.5,0.9,3.3,1.5,5.3,1.5c5.6,0,10.1-4.5,10.1-10.1
		c0-1.9-0.6-3.7-1.5-5.3l54.8-54.8c1.8,2.8,4.9,4.6,8.5,4.6c5.6,0,10.1-4.5,10.1-10.1c0-3.5-1.8-6.7-4.6-8.5l16.4-16.4
		c1.1,0.9,2.6,1.4,4.1,1.4c3.8,0,6.9-3.1,6.9-6.9c0-1.5-0.5-3-1.4-4.1l20.8-20.8c1.2,2.1,3.4,3.6,6,3.6c3.8,0,6.9-3.1,6.9-6.9
		c0-2.6-1.5-4.9-3.6-6l31.6-31.6c1.9,2.2,4.6,3.6,7.7,3.6c5.6,0,10.1-4.5,10.1-10.1c0-3.1-1.4-5.9-3.6-7.7l40.9-40.9
		c1.2,1.1,2.8,1.8,4.6,1.8c3.8,0,6.9-3.1,6.9-6.9c0-1.8-0.7-3.4-1.8-4.6l21.3-21.3c1.2,1.2,2.9,1.9,4.7,1.9c3.8,0,6.9-3.1,6.9-6.9
		c0-1.8-0.7-3.5-1.9-4.7l11-11c1.9,2.2,4.6,3.6,7.7,3.6c5.6,0,10.1-4.5,10.1-10.1c0-3.1-1.4-5.8-3.6-7.7l17.6-17.6
		c1.6,1.1,3.6,1.8,5.8,1.8c5.6,0,10.1-4.5,10.1-10.1c0-2.2-0.7-4.1-1.8-5.8l16.4-16.4l0,0l14.5-14.5c2.1,3.4,5.9,5.7,10.2,5.7
		c6.6,0,12-5.4,12-12c0-4.3-2.3-8.1-5.7-10.2l12.9-12.9c0.8,0.6,1.9,1,3,1c2.8,0,5.1-2.3,5.1-5.1c0-1.1-0.4-2.1-1-3l16.3-16.3
		c1.1,0.8,2.5,1.3,4,1.3c3.8,0,6.9-3.1,6.9-6.9c0-1.5-0.5-2.9-1.3-4l8.6-8.7c1.5,0.9,3.3,1.5,5.3,1.5c5.6,0,10.1-4.5,10.1-10.1
		c0-1.9-0.6-3.7-1.5-5.3l54.8-54.8c1.8,2.8,4.9,4.6,8.5,4.6c5.6,0,10.1-4.5,10.1-10.1c0-3.5-1.8-6.7-4.6-8.5l16.4-16.4
		c1.1,0.9,2.6,1.4,4.1,1.4c3.8,0,6.9-3.1,6.9-6.9c0-1.5-0.5-3-1.4-4.1l20.8-20.8c1.2,2.1,3.4,3.6,6,3.6c3.8,0,6.9-3.1,6.9-6.9
		c0-2.6-1.5-4.9-3.6-6l31.6-31.6c1.9,2.2,4.6,3.6,7.7,3.6c5.6,0,10.1-4.5,10.1-10.1c0-3.1-1.4-5.9-3.6-7.7l40.9-40.9
		c1.2,1.1,2.8,1.8,4.6,1.8c3.8,0,6.9-3.1,6.9-6.9c0-1.8-0.7-3.4-1.8-4.6l21.3-21.3c1.2,1.2,2.9,1.9,4.7,1.9c3.8,0,6.9-3.1,6.9-6.9
		c0-1.8-0.7-3.5-1.9-4.7l11-11c1.9,2.2,4.6,3.6,7.7,3.6c5.6,0,10.1-4.5,10.1-10.1c0-3.1-1.4-5.8-3.6-7.7l17.6-17.6
		c1.6,1.1,3.6,1.8,5.8,1.8c5.6,0,10.1-4.5,10.1-10.1c0-2.2-0.7-4.1-1.8-5.8l16.4-16.4v-1.4l-17,17C831.6,86.3,828.8,84.9,825.7,84.9
		z"/>
	<path fill="#231F20" d="M835.3,0c0,3.9,2.1,7.3,5.3,9.2l-10.2,10.2c-1.4-0.7-2.9-1.1-4.6-1.1c-5.7,0-10.2,4.6-10.2,10.2
		c0,1.6,0.4,3.2,1.1,4.6l-18.5,18.5c-2.9,0.1-5.3,2.5-5.4,5.4l-28,28c-1.4-0.9-3.1-1.4-5-1.4c-5.2,0-9.5,4.3-9.5,9.5
		c0,1.8,0.5,3.5,1.4,5l-21.3,21.3c-2.3-3.5-6.3-5.8-10.7-5.8c-7.1,0-12.9,5.8-12.9,12.9c0,4.5,2.3,8.4,5.8,10.7l-16.9,16.9
		c-1.7-1.8-4.1-3-6.8-3c-5,0-9.1,4.1-9.1,9.1c0,2.7,1.2,5.1,3,6.8l-34.4,34.4c-1.1-0.7-2.4-1.1-3.7-1.1c-3.8,0-6.9,3.1-6.9,6.9
		c0,1.4,0.4,2.7,1.1,3.7l-14.4,14.4c-1.8-3.2-5.3-5.3-9.2-5.3c-5.9,0-10.6,4.8-10.6,10.6c0,3.9,2.1,7.3,5.3,9.2L588.7,261
		c-2.2-3.4-6.1-5.7-10.5-5.7c-6.9,0-12.5,5.6-12.5,12.5c0,4.4,2.3,8.2,5.7,10.5L542,307.7c-0.5-0.2-1.1-0.3-1.6-0.3
		c-3,0-5.4,2.4-5.4,5.4c0,0.6,0.1,1.1,0.3,1.6l-23.6,23.6c-0.6-0.2-1.3-0.3-2-0.3c-3.8,0-6.9,3.1-6.9,6.9c0,0.7,0.1,1.4,0.3,2
		L482.6,367c-1.2-1.5-3-2.4-5-2.4c-3.5,0-6.4,2.9-6.4,6.4c0,2,0.9,3.8,2.4,5l-18.7,18.7c-1.2-0.5-2.4-0.8-3.8-0.8
		c-5.4,0-9.9,4.4-9.9,9.9c0,1.3,0.3,2.6,0.8,3.8l-12.2,12.2c-1.1-1.8-2.7-3.3-4.7-4.3c-1.4-0.6-2.9-1-4.5-1
		c-5.9,0-10.6,4.8-10.6,10.6c0,3.9,2.1,7.3,5.3,9.2l-10.2,10.2c-1.4-0.7-2.9-1.1-4.6-1.1c-5.7,0-10.2,4.6-10.2,10.2
		c0,1.6,0.4,3.2,1.1,4.6l-18.5,18.5c-2.9,0.1-5.3,2.5-5.4,5.4l-28,28c-1.4-0.9-3.1-1.4-5-1.4c-5.2,0-9.5,4.3-9.5,9.5
		c0,1.8,0.5,3.5,1.4,5l-21.3,21.3c-2.3-3.5-6.3-5.8-10.7-5.8c-7.1,0-12.9,5.8-12.9,12.9c0,4.5,2.3,8.4,5.8,10.7l-16.9,16.9
		c-1.7-1.8-4.1-3-6.8-3c-5,0-9.1,4.1-9.1,9.1c0,2.7,1.2,5.1,3,6.8l-34.4,34.4c-1.1-0.7-2.4-1.1-3.7-1.1c-3.8,0-6.9,3.1-6.9,6.9
		c0,1.4,0.4,2.7,1.1,3.7l-14.4,14.4c-1.8-3.2-5.3-5.3-9.2-5.3c-5.9,0-10.6,4.8-10.6,10.6c0,3.9,2.1,7.3,5.3,9.2l-21.3,21.3
		c-2.2-3.4-6.1-5.7-10.5-5.7c-6.9,0-12.5,5.6-12.5,12.5c0,4.4,2.3,8.2,5.7,10.5l-29.5,29.5c-0.5-0.2-1.1-0.3-1.6-0.3
		c-3,0-5.4,2.4-5.4,5.4c0,0.6,0.1,1.1,0.3,1.6l-23.6,23.6c-0.6-0.2-1.3-0.3-2-0.3c-3.8,0-6.9,3.1-6.9,6.9c0,0.7,0.1,1.4,0.3,2
		l-20.4,20.4c-1.2-1.5-3-2.4-5-2.4c-3.5,0-6.4,2.9-6.4,6.4c0,2,0.9,3.8,2.4,5L29.7,820c-1.2-0.5-2.4-0.8-3.8-0.8
		c-5.4,0-9.9,4.4-9.9,9.9c0,1.3,0.3,2.6,0.8,3.8L4.7,845c-1.1-1.8-2.7-3.3-4.7-4.3v9.6h6.1c0-1.6-0.4-3.1-1-4.4l12.1-12.1
		c1.7,3.1,4.9,5.1,8.7,5.1c5.4,0,9.9-4.4,9.9-9.9c0-3.7-2.1-7-5.1-8.7l18.6-18.6c0.9,0.5,2,0.8,3.2,0.8c3.5,0,6.4-2.9,6.4-6.4
		c0-1.1-0.3-2.2-0.8-3.2l20.2-20.2c1.1,2.3,3.5,3.9,6.2,3.9c3.8,0,6.9-3.1,6.9-6.9c0-2.7-1.6-5.1-3.9-6.2l23-23
		c0.9,1.7,2.7,2.8,4.7,2.8c3,0,5.4-2.4,5.4-5.4c0-2-1.1-3.8-2.8-4.7l29.4-29.4c1.8,1,3.8,1.5,5.9,1.5c6.9,0,12.5-5.6,12.5-12.5
		c0-2.1-0.5-4.2-1.5-5.9l21.7-21.7c1.3,0.6,2.8,1,4.4,1c5.9,0,10.6-4.8,10.6-10.6c0-1.6-0.3-3-1-4.4l14.5-14.5
		c1.3,1.4,3.1,2.3,5.1,2.3c3.8,0,6.9-3.1,6.9-6.9c0-2.1-0.9-3.9-2.3-5.1l34.3-34.3c1.5,1.1,3.3,1.7,5.3,1.7c5,0,9.1-4.1,9.1-9.1
		c0-2-0.6-3.8-1.7-5.3l17.1-17.1c1.8,1,4,1.6,6.2,1.6c7.1,0,12.9-5.8,12.9-12.9c0-2.3-0.6-4.4-1.6-6.2l21.4-21.4
		c1.7,2.2,4.4,3.7,7.5,3.7c5.2,0,9.5-4.3,9.5-9.5c0-3-1.4-5.8-3.7-7.5l27.3-27.3c0.5,2.6,2.8,4.5,5.5,4.5c3.1,0,5.6-2.5,5.6-5.6
		c0-2.7-1.9-5-4.5-5.5l17.7-17.7c1.8,2.9,5,4.8,8.7,4.8c5.7,0,10.2-4.6,10.2-10.2c0-3.6-1.9-6.8-4.8-8.7l10.3-10.3
		c1.4,0.6,2.9,1,4.4,1c1.6,0,3.1-0.4,4.5-1c3.6-1.7,6.1-5.4,6.1-9.6c0-1.6-0.4-3.1-1-4.4l12.1-12.1c1.7,3.1,4.9,5.1,8.7,5.1
		c5.4,0,9.9-4.4,9.9-9.9c0-3.7-2.1-7-5.1-8.7l18.6-18.6c0.9,0.5,2,0.8,3.2,0.8c3.5,0,6.4-2.9,6.4-6.4c0-1.1-0.3-2.2-0.8-3.2
		l20.2-20.2c1.1,2.3,3.5,3.9,6.2,3.9c3.8,0,6.9-3.1,6.9-6.9c0-2.7-1.6-5.1-3.9-6.2l23-23c0.9,1.7,2.7,2.8,4.7,2.8
		c3,0,5.4-2.4,5.4-5.4c0-2-1.1-3.8-2.8-4.7l29.4-29.4c1.8,1,3.8,1.5,5.9,1.5c6.9,0,12.5-5.6,12.5-12.5c0-2.1-0.5-4.2-1.5-5.9
		l21.7-21.7c1.3,0.6,2.8,1,4.4,1c5.9,0,10.6-4.8,10.6-10.6c0-1.6-0.3-3-1-4.4l14.5-14.5c1.3,1.4,3.1,2.3,5.1,2.3
		c3.8,0,6.9-3.1,6.9-6.9c0-2-0.9-3.9-2.3-5.1l34.3-34.3c1.5,1.1,3.3,1.7,5.3,1.7c5,0,9.1-4.1,9.1-9.1c0-2-0.6-3.8-1.7-5.3l17.1-17.1
		c1.8,1,4,1.6,6.2,1.6c7.1,0,12.9-5.8,12.9-12.9c0-2.3-0.6-4.4-1.6-6.2l21.4-21.4c1.7,2.2,4.4,3.7,7.5,3.7c5.2,0,9.5-4.3,9.5-9.5
		c0-3-1.4-5.8-3.7-7.5l27.2-27.3c0.5,2.6,2.8,4.5,5.5,4.5c3.1,0,5.6-2.5,5.6-5.6c0-2.7-1.9-5-4.5-5.5L817.1,34
		c1.8,2.9,5,4.8,8.7,4.8c5.7,0,10.2-4.6,10.2-10.2c0-3.6-1.9-6.8-4.8-8.7l10.3-10.3c1.4,0.6,2.9,1,4.4,1c1.6,0,3.1-0.4,4.5-1V0
		H835.3z"/>
	<path fill="#231F20" d="M835.3,425.2c0,3.9,2.1,7.3,5.3,9.2l-10.2,10.2c-1.4-0.7-2.9-1.1-4.6-1.1c-5.7,0-10.2,4.6-10.2,10.2
		c0,1.6,0.4,3.2,1.1,4.6l-18.5,18.5c-2.9,0.1-5.3,2.5-5.4,5.4l-28,28c-1.4-0.9-3.1-1.4-5-1.4c-5.2,0-9.5,4.3-9.5,9.5
		c0,1.8,0.5,3.5,1.4,5l-21.3,21.3c-2.3-3.5-6.3-5.8-10.7-5.8c-7.1,0-12.9,5.8-12.9,12.9c0,4.5,2.3,8.4,5.8,10.7l-16.9,16.9
		c-1.7-1.8-4.1-3-6.8-3c-5,0-9.1,4.1-9.1,9.1c0,2.7,1.2,5.1,3,6.8l-34.4,34.4c-1.1-0.7-2.4-1.1-3.7-1.1c-3.8,0-6.9,3.1-6.9,6.9
		c0,1.4,0.4,2.7,1.1,3.7l-14.4,14.4c-1.8-3.2-5.3-5.3-9.2-5.3c-5.9,0-10.6,4.8-10.6,10.6c0,3.9,2.1,7.3,5.3,9.2l-21.3,21.3
		c-2.2-3.4-6.1-5.7-10.5-5.7c-6.9,0-12.5,5.6-12.5,12.5c0,4.4,2.3,8.2,5.7,10.5L542,732.9c-0.5-0.2-1.1-0.3-1.6-0.3
		c-3,0-5.4,2.4-5.4,5.4c0,0.6,0.1,1.1,0.3,1.6l-23.6,23.6c-0.6-0.2-1.3-0.3-2-0.3c-3.8,0-6.9,3.1-6.9,6.9c0,0.7,0.1,1.4,0.3,2
		l-20.4,20.4c-1.2-1.5-3-2.4-5-2.4c-3.5,0-6.4,2.9-6.4,6.4c0,2,0.9,3.8,2.4,5L454.9,820c-1.2-0.5-2.4-0.8-3.8-0.8
		c-5.4,0-9.9,4.4-9.9,9.9c0,1.3,0.3,2.6,0.8,3.8L429.9,845c-1.1-1.8-2.7-3.3-4.7-4.3c-1.4-0.6-2.9-1-4.5-1
		c-5.9,0-10.6,4.8-10.6,10.6h15.1h6.1c0-1.6-0.4-3.1-1-4.4l12.1-12.1c1.7,3.1,4.9,5.1,8.7,5.1c5.4,0,9.9-4.4,9.9-9.9
		c0-3.7-2.1-7-5.1-8.7l18.6-18.6c0.9,0.5,2,0.8,3.2,0.8c3.5,0,6.4-2.9,6.4-6.4c0-1.1-0.3-2.2-0.8-3.2l20.2-20.2
		c1.1,2.3,3.5,3.9,6.2,3.9c3.8,0,6.9-3.1,6.9-6.9c0-2.7-1.6-5.1-3.9-6.2l23-23c0.9,1.7,2.7,2.8,4.7,2.8c3,0,5.4-2.4,5.4-5.4
		c0-2-1.1-3.8-2.8-4.7l29.4-29.4c1.8,1,3.8,1.5,5.9,1.5c6.9,0,12.5-5.6,12.5-12.5c0-2.1-0.5-4.2-1.5-5.9l21.7-21.7
		c1.3,0.6,2.8,1,4.4,1c5.9,0,10.6-4.8,10.6-10.6c0-1.6-0.3-3-1-4.4l14.5-14.5c1.3,1.4,3.1,2.3,5.1,2.3c3.8,0,6.9-3.1,6.9-6.9
		c0-2.1-0.9-3.9-2.3-5.1l34.3-34.3c1.5,1.1,3.3,1.7,5.3,1.7c5,0,9.1-4.1,9.1-9.1c0-2-0.6-3.8-1.7-5.3l17.1-17.1c1.8,1,4,1.6,6.2,1.6
		c7.1,0,12.9-5.8,12.9-12.9c0-2.3-0.6-4.4-1.6-6.2l21.4-21.4c1.7,2.2,4.4,3.7,7.5,3.7c5.2,0,9.5-4.3,9.5-9.5c0-3-1.4-5.8-3.7-7.5
		l27.2-27.3c0.5,2.6,2.8,4.5,5.5,4.5c3.1,0,5.6-2.5,5.6-5.6c0-2.7-1.9-5-4.5-5.5l17.7-17.7c1.8,2.9,5,4.8,8.7,4.8
		c5.7,0,10.2-4.6,10.2-10.2c0-3.6-1.9-6.8-4.8-8.7l10.3-10.3c1.4,0.6,2.9,1,4.4,1c1.6,0,3.1-0.4,4.5-1v-9.6v-9.6
		c-1.4-0.6-2.9-1-4.5-1C840,414.6,835.3,419.3,835.3,425.2z"/>
	<path fill="#231F20" d="M806.3,193.3c-3.8,0-6.9,3.1-6.9,6.9c0,2,0.9,3.9,2.3,5.1l-14.8,14.8c-1.8-2.4-4.8-4-8-4
		c-5.6,0-10.1,4.5-10.1,10.1c0,3.3,1.6,6.2,4,8l-24.8,24.8c-1.1-0.7-2.4-1.1-3.7-1.1c-3.8,0-6.9,3.1-6.9,6.9c0,1.4,0.4,2.7,1.1,3.7
		l-5.2,5.2c-1.7-1.3-3.8-2-6.1-2c-5.6,0-10.1,4.5-10.1,10.1c0,2.3,0.8,4.4,2,6.1l-32.7,32.7c-2.1-1.7-4.8-2.8-7.7-2.8
		c-6.6,0-12,5.4-12,12c0,2.9,1,5.6,2.8,7.7l-7.7,7.7c-1-0.6-2.2-1-3.5-1c-3.8,0-6.9,3.1-6.9,6.9c0,1.3,0.4,2.5,1,3.5l-40.9,40.9
		c-1.2-1.1-2.8-1.8-4.6-1.8c-3.8,0-6.9,3.1-6.9,6.9c0,1.8,0.7,3.4,1.8,4.6l-20.1,20.1l0,0L570,437c-2.2-2.5-5.4-4.1-9-4.1
		c-6.6,0-12,5.4-12,12c0,3.6,1.6,6.8,4.1,9l-23.5,23.5c-1.8-1.5-4-2.3-6.5-2.3c-5.6,0-10.1,4.5-10.1,10.1c0,2.5,0.9,4.7,2.3,6.5
		l-27.8,27.8c-0.8-0.6-1.9-1-3-1c-2.8,0-5.1,2.3-5.1,5.1c0,1.1,0.4,2.2,1,3l-25.3,25.3c-1.8-1.8-4.3-2.9-7.1-2.9
		c-5.6,0-10.1,4.5-10.1,10.1c0,2.8,1.1,5.3,2.9,7.1l-15.6,15.6l0,0l-39,39c-1.3-1.4-3.1-2.3-5.1-2.3c-3.8,0-6.9,3.1-6.9,6.9
		c0,2,0.9,3.9,2.3,5.1l-14.8,14.8c-1.8-2.4-4.8-4-8-4c-5.6,0-10.1,4.5-10.1,10.1c0,3.3,1.6,6.2,4,8l-24.8,24.8
		c-1.1-0.7-2.4-1.1-3.7-1.1c-3.8,0-6.9,3.1-6.9,6.9c0,1.4,0.4,2.7,1.1,3.7l-5.2,5.2c-1.7-1.3-3.8-2-6.1-2c-5.6,0-10.1,4.5-10.1,10.1
		c0,2.3,0.8,4.4,2,6.1l-32.7,32.7c-2.1-1.7-4.8-2.8-7.7-2.8c-6.6,0-12,5.4-12,12c0,2.9,1,5.6,2.8,7.7l-7.7,7.7c-1-0.6-2.2-1-3.5-1
		c-3.8,0-6.9,3.1-6.9,6.9c0,1.3,0.4,2.5,1,3.5l-40.9,40.9c-1.2-1.1-2.8-1.8-4.6-1.8c-3.8,0-6.9,3.1-6.9,6.9c0,1.8,0.7,3.4,1.8,4.6
		l-20.1,20.1h1.4l19.4-19.4c1.2,1,2.7,1.6,4.4,1.6c3.8,0,6.9-3.1,6.9-6.9c0-1.7-0.6-3.2-1.6-4.4l40.7-40.7c1.3,1.5,3.2,2.5,5.3,2.5
		c3.8,0,6.9-3.1,6.9-6.9c0-2.2-1-4.1-2.5-5.3l7.5-7.5c2.2,2.2,5.2,3.6,8.5,3.6c6.6,0,12-5.4,12-12c0-3.3-1.4-6.4-3.6-8.5l32.6-32.6
		c1.9,2,4.5,3.3,7.5,3.3c5.6,0,10.1-4.5,10.1-10.1c0-3-1.3-5.6-3.3-7.5l5-5c1.3,1.4,3.1,2.3,5.2,2.3c3.8,0,6.9-3.1,6.9-6.9
		c0-2.1-0.9-3.9-2.3-5.2l24.8-24.8c1.5,0.9,3.4,1.5,5.3,1.5c5.6,0,10.1-4.5,10.1-10.1c0-1.9-0.6-3.8-1.5-5.3l15-15
		c1.1,0.7,2.4,1.1,3.8,1.1c3.8,0,6.9-3.1,6.9-6.9c0-1.4-0.4-2.7-1.1-3.8l38.4-38.4l0,0l16.4-16.4c1.8,1.5,4,2.3,6.5,2.3
		c5.6,0,10.1-4.5,10.1-10.1c0-2.5-0.9-4.7-2.3-6.5l25.3-25.3c0.9,0.8,2.1,1.3,3.4,1.3c2.8,0,5.1-2.3,5.1-5.1c0-1.3-0.5-2.5-1.3-3.4
		l27.7-27.7c1.8,1.8,4.3,2.9,7.1,2.9c5.6,0,10.1-4.5,10.1-10.1c0-2.8-1.1-5.3-2.9-7.1l23.5-23.5c2,1.5,4.4,2.3,7.1,2.3
		c6.6,0,12-5.4,12-12c0-2.7-0.9-5.1-2.3-7.1l12.6-12.6l19.4-19.4c1.2,1,2.7,1.6,4.4,1.6c3.8,0,6.9-3.1,6.9-6.9
		c0-1.7-0.6-3.2-1.6-4.4l40.7-40.7c1.3,1.5,3.2,2.5,5.3,2.5c3.8,0,6.9-3.1,6.9-6.9c0-2.2-1-4.1-2.5-5.3l7.5-7.5
		c2.2,2.2,5.2,3.6,8.5,3.6c6.6,0,12-5.4,12-12c0-3.3-1.4-6.4-3.6-8.5l32.6-32.6c1.9,2,4.5,3.3,7.5,3.3c5.6,0,10.1-4.5,10.1-10.1
		c0-3-1.3-5.6-3.3-7.5l5-5c1.3,1.4,3.1,2.3,5.2,2.3c3.8,0,6.9-3.1,6.9-6.9c0-2.1-0.9-3.9-2.3-5.2l24.8-24.8c1.5,1,3.4,1.5,5.3,1.5
		c5.6,0,10.1-4.5,10.1-10.1c0-1.9-0.6-3.8-1.5-5.3l15-15c1.1,0.7,2.4,1.1,3.8,1.1c3.8,0,6.9-3.1,6.9-6.9c0-1.4-0.4-2.7-1.1-3.8
		l38.4-38.4v-1.4l-39,39C810.1,194.2,808.3,193.3,806.3,193.3z"/>
	<path fill="#231F20" d="M846.6,189c0,1.2,0.4,2.2,1.1,3.1l-4.8,4.8c-1.8-1.8-4.3-2.9-7.1-2.9c-5.6,0-10.1,4.5-10.1,10.1
		c0,2.8,1.1,5.3,2.9,7.1L785,254.7c-0.9-0.4-1.9-0.7-2.9-0.7c-3.8,0-6.9,3.1-6.9,6.9c0,1,0.2,2,0.7,2.9L722.7,317
		c-1.8-2.5-4.8-4.2-8.2-4.2c-5.6,0-10.1,4.5-10.1,10.1c0,3.4,1.6,6.3,4.2,8.2l-48.9,48.9c-1.8-2.5-4.8-4.1-8.1-4.1
		c-5.6,0-10.1,4.5-10.1,10.1c0,3.3,1.6,6.3,4.1,8.1l-31,31l-22.2,22.2c-0.9-1.5-2.5-2.5-4.4-2.5c-2.8,0-5.1,2.3-5.1,5.1
		c0,1.9,1,3.5,2.5,4.4l-16.2,16.2c-1.3-1.5-3.1-2.4-5.2-2.4c-3.8,0-6.9,3.1-6.9,6.9c0,2.1,0.9,4,2.4,5.2l-30,30
		c-0.9-1.3-2.4-2.1-4.1-2.1c-2.8,0-5.1,2.3-5.1,5.1c0,1.7,0.8,3.2,2.1,4.1l-10.7,10.7c-1.2-1.3-2.9-2.2-4.8-2.2
		c-3.5,0-6.4,2.9-6.4,6.4c0,1.9,0.8,3.6,2.2,4.8L490,549.8c-2.1-1.7-4.7-2.7-7.6-2.7c-6.6,0-12,5.4-12,12c0,2.9,1,5.5,2.7,7.6
		l-43.6,43.5c-0.9-0.7-1.9-1.1-3.1-1.1c-0.4,0-0.9,0.1-1.3,0.2c-2.2,0.6-3.8,2.6-3.8,4.9c0,1.2,0.4,2.2,1.1,3.1l-4.8,4.8
		c-1.8-1.8-4.3-2.9-7.1-2.9c-5.6,0-10.1,4.5-10.1,10.1c0,2.8,1.1,5.3,2.9,7.1l-43.5,43.5c-0.9-0.4-1.9-0.7-2.9-0.7
		c-3.8,0-6.9,3.1-6.9,6.9c0,1,0.2,2,0.7,2.9l-53.2,53.2c-1.8-2.5-4.8-4.2-8.2-4.2c-5.6,0-10.1,4.5-10.1,10.1c0,3.4,1.6,6.3,4.2,8.2
		l-48.9,48.9c-1.8-2.5-4.8-4.1-8.1-4.1c-5.6,0-10.1,4.5-10.1,10.1c0,3.3,1.6,6.3,4.1,8.1l-31,31h1.4l30.4-30.4
		c1.5,0.9,3.3,1.4,5.2,1.4c5.6,0,10.1-4.5,10.1-10.1c0-1.9-0.5-3.7-1.4-5.2l49.2-49.2c1.5,0.9,3.2,1.4,5.1,1.4
		c5.6,0,10.1-4.5,10.1-10.1c0-1.9-0.5-3.6-1.4-5.1l53.2-53.2c1.2,1.8,3.3,3.1,5.7,3.1c3.8,0,6.9-3.1,6.9-6.9c0-2.4-1.2-4.5-3.1-5.7
		l43.3-43.3c1.8,1.5,4,2.4,6.5,2.4c5.6,0,10.1-4.5,10.1-10.1c0-2.5-0.9-4.7-2.4-6.5l4.8-4.8c0.6,0.5,1.3,0.9,2.1,1.1
		c0.4,0.1,0.8,0.2,1.3,0.2c2.8,0,5.1-2.3,5.1-5.1c0-1.3-0.5-2.5-1.3-3.4l43.5-43.5c2.2,2.3,5.2,3.7,8.6,3.7c6.6,0,12-5.4,12-12
		c0-3.4-1.4-6.5-3.7-8.6l12.6-12.6c1,0.6,2.2,1,3.4,1c3.5,0,6.4-2.9,6.4-6.4c0-1.3-0.4-2.4-1-3.4l11-11c0.7,0.3,1.4,0.5,2.1,0.5
		c2.8,0,5.1-2.3,5.1-5.1c0-0.8-0.2-1.5-0.5-2.1l30.3-30.3c1.1,0.7,2.3,1.1,3.6,1.1c3.8,0,6.9-3.1,6.9-6.9c0-1.3-0.4-2.6-1.1-3.6
		l16.6-16.6c0.5,0.2,1,0.3,1.6,0.3c2.8,0,5.1-2.3,5.1-5.1c0-0.6-0.1-1.1-0.3-1.6l23.2-23.2l30.4-30.4c1.5,0.9,3.3,1.4,5.2,1.4
		c5.6,0,10.1-4.5,10.1-10.1c0-1.9-0.5-3.7-1.4-5.2l49.2-49.2c1.5,0.9,3.2,1.4,5.1,1.4c5.6,0,10.1-4.5,10.1-10.1
		c0-1.9-0.5-3.6-1.4-5.1l53.2-53.2c1.2,1.8,3.3,3.1,5.7,3.1c3.8,0,6.9-3.1,6.9-6.9c0-2.4-1.2-4.5-3.1-5.7l43.3-43.3
		c1.8,1.5,4,2.4,6.5,2.4c5.6,0,10.1-4.5,10.1-10.1c0-2.5-0.9-4.7-2.4-6.5l4.8-4.8c0.6,0.5,1.3,0.9,2.1,1.1v-9.9
		C848.2,184.7,846.6,186.6,846.6,189z"/>
	<path fill="#231F20" d="M844.4,294.2c0,1.8,0.7,3.5,1.8,4.7L833,312.2c-1.1-0.8-2.5-1.3-4-1.3c-3.8,0-6.9,3.1-6.9,6.9
		c0,1.5,0.5,2.8,1.3,4l-6.3,6.3c-1.9-2.1-4.5-3.4-7.6-3.4c-5.6,0-10.1,4.5-10.1,10.1c0,3,1.3,5.7,3.4,7.6l-11.6,11.6
		c-1.2-1.8-3.3-2.9-5.6-2.9c-3.8,0-6.9,3.1-6.9,6.9c0,2.3,1.1,4.4,2.9,5.6l-30.1,30.1c-1.8-2-4.5-3.2-7.4-3.2
		c-5.6,0-10.1,4.5-10.1,10.1c0,2.9,1.2,5.5,3.2,7.4l-10.3,10.3c-1.8-1.9-4.4-3.1-7.3-3.1c-5.6,0-10.1,4.5-10.1,10.1
		c0,2.9,1.2,5.5,3.1,7.3l-40,40c-1.9-2.1-4.6-3.4-7.6-3.4c-5.6,0-10.1,4.5-10.1,10.1c0,3,1.3,5.7,3.4,7.6L637,508.1
		c-2.2-3-5.7-4.9-9.7-4.9c-6.6,0-12,5.4-12,12c0,4,1.9,7.5,4.9,9.7l-2,2c-0.8-0.6-1.8-0.9-2.9-0.9c-2.8,0-5.1,2.3-5.1,5.1
		c0,1.1,0.3,2.1,0.9,2.9l-32.4,32.4c-1.9-2.2-4.6-3.6-7.7-3.6c-5.6,0-10.1,4.5-10.1,10.1c0,3.1,1.4,5.9,3.6,7.7L508,637.2
		c-0.8-1.9-2.6-3.2-4.7-3.2c-2.8,0-5.1,2.3-5.1,5.1c0,2.1,1.3,4,3.2,4.7l-13.9,13.9c-1.3-1.3-3.1-2.1-5-2.1c-4,0-7.2,3.2-7.2,7.2
		c0,2,0.8,3.7,2,5l-46,46c-1.3-1.1-2.9-1.8-4.7-1.8c-0.4,0-0.9,0-1.3,0.1c-3.4,0.6-6,3.6-6,7.1c0,1.8,0.7,3.5,1.8,4.7l-13.2,13.2
		c-1.1-0.8-2.5-1.3-4-1.3c-3.8,0-6.9,3.1-6.9,6.9c0,1.5,0.5,2.8,1.3,4l-6.3,6.3c-1.9-2.1-4.5-3.4-7.6-3.4c-5.6,0-10.1,4.5-10.1,10.1
		c0,3,1.3,5.7,3.4,7.6L366,779.1c-1.2-1.8-3.3-2.9-5.6-2.9c-3.8,0-6.9,3.1-6.9,6.9c0,2.3,1.1,4.4,2.9,5.6l-30.1,30.1
		c-1.8-2-4.5-3.2-7.4-3.2c-5.6,0-10.1,4.5-10.1,10.1c0,2.9,1.2,5.5,3.2,7.4l-10.3,10.3c-1.8-1.9-4.4-3.1-7.3-3.1
		c-5.6,0-10.1,4.5-10.1,10.1h20.2c0-2.3-0.8-4.5-2.1-6.2l10.5-10.5c1.7,1.3,3.8,2.1,6.2,2.1c5.6,0,10.1-4.5,10.1-10.1
		c0-2.3-0.8-4.5-2.1-6.2l30.3-30.3c0.9,0.5,2,0.7,3.1,0.7c3.8,0,6.9-3.1,6.9-6.9c0-1.1-0.3-2.2-0.7-3.1l11.9-11.9
		c1.7,1.2,3.7,1.9,5.9,1.9c5.6,0,10.1-4.5,10.1-10.1c0-2.2-0.7-4.3-1.9-5.9l6.3-6.3c1.2,1.3,3,2.1,5,2.1c3.8,0,6.9-3.1,6.9-6.9
		c0-2-0.8-3.7-2.1-5l13.2-13.2c1,0.9,2.2,1.4,3.5,1.7c0.4,0.1,0.8,0.1,1.3,0.1c4,0,7.2-3.2,7.2-7.2c0-1.8-0.7-3.5-1.8-4.8l46.1-46.1
		c1.2,1,2.8,1.5,4.4,1.5c4,0,7.2-3.2,7.2-7.2c0-1.7-0.6-3.2-1.5-4.4l14.3-14.3c0.3,0,0.5,0.1,0.8,0.1c2.8,0,5.1-2.3,5.1-5.1
		c0-0.3,0-0.6-0.1-0.8l57-57c1.6,1.1,3.6,1.8,5.7,1.8c5.6,0,10.1-4.5,10.1-10.1c0-2.1-0.7-4.1-1.8-5.7l32.4-32.4
		c0.9,0.9,2.2,1.4,3.6,1.4c2.8,0,5.1-2.3,5.1-5.1c0-1.4-0.6-2.6-1.4-3.6l2.1-2.1c1.8,1.1,4,1.8,6.3,1.8c6.6,0,12-5.4,12-12
		c0-2.3-0.6-4.5-1.8-6.3l21.6-21.6c1.7,1.2,3.7,1.9,5.9,1.9c5.6,0,10.1-4.5,10.1-10.1c0-2.2-0.7-4.2-1.9-5.9l40.1-40.1
		c1.7,1.3,3.9,2.1,6.2,2.1c5.6,0,10.1-4.5,10.1-10.1c0-2.3-0.8-4.5-2.1-6.2l10.4-10.5c1.7,1.3,3.8,2.1,6.2,2.1
		c5.6,0,10.1-4.5,10.1-10.1c0-2.3-0.8-4.5-2.1-6.2l30.3-30.3c0.9,0.5,2,0.7,3.1,0.7c3.8,0,6.9-3.1,6.9-6.9c0-1.1-0.3-2.2-0.7-3.1
		l11.9-11.9c1.7,1.2,3.7,1.9,5.9,1.9c5.6,0,10.1-4.5,10.1-10.1c0-2.2-0.7-4.3-1.9-5.9l6.3-6.3c1.2,1.3,3,2.1,5,2.1
		c3.8,0,6.9-3.1,6.9-6.9c0-2-0.8-3.7-2.1-5l13.2-13.2c1,0.9,2.2,1.4,3.5,1.7v-14.2C847,287.7,844.4,290.7,844.4,294.2z"/>
	<path fill="#231F20" d="M8.5,719.4c0-1.8-0.7-3.5-1.8-4.8l46.1-46.1c1.2,1,2.8,1.5,4.4,1.5c4,0,7.2-3.2,7.2-7.2
		c0-1.7-0.6-3.2-1.5-4.4l14.3-14.3c0.3,0,0.5,0.1,0.8,0.1c2.8,0,5.1-2.3,5.1-5.1c0-0.3,0-0.6-0.1-0.8l57-57c1.6,1.1,3.6,1.8,5.7,1.8
		c5.6,0,10.1-4.5,10.1-10.1c0-2.1-0.7-4.1-1.8-5.7l32.4-32.4c0.9,0.9,2.2,1.4,3.6,1.4c2.8,0,5.1-2.3,5.1-5.1c0-1.4-0.6-2.6-1.4-3.6
		l2.1-2.1c1.8,1.1,4,1.8,6.3,1.8c6.6,0,12-5.4,12-12c0-2.3-0.6-4.5-1.8-6.3l21.6-21.6c1.7,1.2,3.7,1.9,5.9,1.9
		c5.6,0,10.1-4.5,10.1-10.1c0-2.2-0.7-4.2-1.9-5.9l40.1-40.1c1.7,1.3,3.9,2.1,6.2,2.1c5.6,0,10.1-4.5,10.1-10.1
		c0-2.3-0.8-4.5-2.1-6.2l10.5-10.5c1.7,1.3,3.8,2.1,6.2,2.1c5.6,0,10.1-4.5,10.1-10.1c0-2.3-0.8-4.5-2.1-6.2l30.3-30.3
		c0.9,0.5,2,0.7,3.1,0.7c3.8,0,6.9-3.1,6.9-6.9c0-1.1-0.3-2.2-0.7-3.1l11.9-11.9c1.7,1.2,3.7,1.9,5.9,1.9c5.6,0,10.1-4.5,10.1-10.1
		c0-2.2-0.7-4.3-1.9-5.9l6.3-6.3c1.2,1.3,3,2.1,5,2.1c3.8,0,6.9-3.1,6.9-6.9c0-2-0.8-3.7-2.1-5l13.2-13.2c1,0.9,2.2,1.4,3.5,1.7
		c0.4,0.1,0.8,0.1,1.3,0.1c4,0,7.2-3.2,7.2-7.2c0-1.8-0.7-3.5-1.8-4.8l46.1-46.1c1.2,1,2.8,1.5,4.4,1.5c4,0,7.2-3.2,7.2-7.2
		c0-1.7-0.6-3.2-1.5-4.4l14.3-14.3c0.3,0,0.5,0.1,0.8,0.1c2.8,0,5.1-2.3,5.1-5.1c0-0.3,0-0.6-0.1-0.8l57-57c1.6,1.1,3.6,1.8,5.7,1.8
		c5.6,0,10.1-4.5,10.1-10.1c0-2.1-0.7-4.1-1.8-5.7l32.4-32.4c0.9,0.9,2.2,1.4,3.6,1.4c2.8,0,5.1-2.3,5.1-5.1c0-1.4-0.6-2.6-1.4-3.6
		l2.1-2.1c1.8,1.1,4,1.8,6.3,1.8c6.6,0,12-5.4,12-12c0-2.3-0.6-4.5-1.8-6.3l21.6-21.6c1.7,1.2,3.7,1.9,5.9,1.9
		c5.6,0,10.1-4.5,10.1-10.1c0-2.2-0.7-4.2-1.9-5.9L713.4,8c1.7,1.3,3.9,2.1,6.2,2.1c5.6,0,10.1-4.5,10.1-10.1h-20.2
		c0,2.9,1.2,5.5,3.1,7.3l-40,40c-1.9-2.1-4.6-3.4-7.6-3.4c-5.6,0-10.1,4.5-10.1,10.1c0,3,1.3,5.7,3.4,7.6L637,82.9
		c-2.2-3-5.7-4.9-9.7-4.9c-6.6,0-12,5.4-12,12c0,4,1.9,7.5,4.9,9.7l-2,2c-0.8-0.6-1.8-0.9-2.9-0.9c-2.8,0-5.1,2.3-5.1,5.1
		c0,1.1,0.3,2.1,0.9,2.9l-32.4,32.4c-1.9-2.2-4.6-3.6-7.7-3.6c-5.6,0-10.1,4.5-10.1,10.1c0,3.1,1.4,5.9,3.6,7.7L508,212
		c-0.8-1.9-2.6-3.2-4.7-3.2c-2.8,0-5.1,2.3-5.1,5.1c0,2.1,1.3,4,3.2,4.7l-13.9,13.9c-1.3-1.3-3.1-2-5-2c-4,0-7.2,3.2-7.2,7.2
		c0,2,0.8,3.7,2,5l-46,46c-1.3-1.1-2.9-1.8-4.7-1.8c-0.4,0-0.9,0-1.3,0.1c-3.4,0.6-6,3.6-6,7.1c0,1.8,0.7,3.5,1.8,4.7l-13.2,13.2
		c-1.1-0.8-2.5-1.3-4-1.3c-3.8,0-6.9,3.1-6.9,6.9c0,1.5,0.5,2.8,1.3,4l-6.3,6.3c-1.9-2.1-4.5-3.4-7.6-3.4c-5.6,0-10.1,4.5-10.1,10.1
		c0,3,1.3,5.7,3.4,7.6L366,353.9c-1.2-1.8-3.3-2.9-5.6-2.9c-3.8,0-6.9,3.1-6.9,6.9c0,2.3,1.1,4.4,2.9,5.6l-30.1,30.1
		c-1.8-2-4.5-3.2-7.4-3.2c-5.6,0-10.1,4.5-10.1,10.1c0,2.9,1.2,5.5,3.2,7.4l-10.3,10.3c-1.8-1.9-4.4-3.1-7.3-3.1
		c-5.6,0-10.1,4.5-10.1,10.1c0,2.9,1.2,5.5,3.1,7.3l-40,40c-1.9-2.1-4.6-3.4-7.6-3.4c-5.6,0-10.1,4.5-10.1,10.1c0,3,1.3,5.7,3.4,7.6
		l-21.4,21.4c-2.2-3-5.7-4.9-9.7-4.9c-6.6,0-12,5.4-12,12c0,4,1.9,7.5,4.9,9.7l-2,2c-0.8-0.6-1.8-0.9-2.9-0.9
		c-2.8,0-5.1,2.3-5.1,5.1c0,1.1,0.3,2.1,0.9,2.9l-32.4,32.4c-1.9-2.2-4.6-3.6-7.7-3.6c-5.6,0-10.1,4.5-10.1,10.1
		c0,3.1,1.4,5.9,3.6,7.7l-56.5,56.5c-0.8-1.9-2.6-3.2-4.7-3.2c-2.8,0-5.1,2.3-5.1,5.1c0,2.1,1.3,4,3.2,4.7l-13.9,13.9
		c-1.3-1.3-3.1-2.1-5-2.1c-4,0-7.2,3.2-7.2,7.2c0,2,0.8,3.7,2,5L6,714c-1.3-1.1-2.9-1.8-4.7-1.8c-0.4,0-0.9,0-1.3,0.1v14.2
		c0.4,0.1,0.8,0.1,1.3,0.1C5.3,726.7,8.5,723.4,8.5,719.4z"/>
	<path fill="#231F20" d="M6.4,614.2c0-1.3-0.5-2.5-1.3-3.4l43.5-43.5c2.2,2.3,5.2,3.7,8.6,3.7c6.6,0,12-5.4,12-12
		c0-3.4-1.4-6.5-3.7-8.6l12.6-12.6c1,0.6,2.2,1,3.4,1c3.5,0,6.4-2.9,6.4-6.4c0-1.3-0.4-2.4-1-3.4l11-11c0.7,0.3,1.4,0.5,2.1,0.5
		c2.8,0,5.1-2.3,5.1-5.1c0-0.8-0.2-1.5-0.5-2.1l30.3-30.3c1.1,0.7,2.3,1.1,3.6,1.1c3.8,0,6.9-3.1,6.9-6.9c0-1.3-0.4-2.6-1.1-3.6
		l16.6-16.6c0.5,0.2,1,0.3,1.6,0.3c2.8,0,5.1-2.3,5.1-5.1c0-0.6-0.1-1.1-0.3-1.6l23.2-23.2l30.4-30.4c1.5,0.9,3.3,1.4,5.2,1.4
		c5.6,0,10.1-4.5,10.1-10.1c0-1.9-0.5-3.7-1.4-5.2l49.2-49.2c1.5,0.9,3.2,1.4,5.1,1.4c5.6,0,10.1-4.5,10.1-10.1
		c0-1.9-0.5-3.6-1.4-5.1l53.2-53.2c1.2,1.8,3.3,3.1,5.7,3.1c3.8,0,6.9-3.1,6.9-6.9c0-2.4-1.2-4.5-3.1-5.7l43.3-43.3
		c1.8,1.5,4,2.4,6.5,2.4c5.6,0,10.1-4.5,10.1-10.1c0-2.5-0.9-4.7-2.4-6.5l4.8-4.8c0.6,0.5,1.3,0.9,2.1,1.1c0.4,0.1,0.8,0.2,1.3,0.2
		c2.8,0,5.1-2.3,5.1-5.1c0-1.3-0.5-2.5-1.3-3.4l43.5-43.5c2.2,2.3,5.2,3.7,8.6,3.7c6.6,0,12-5.4,12-12c0-3.4-1.4-6.5-3.7-8.6
		l12.6-12.6c1,0.6,2.2,1,3.4,1c3.5,0,6.4-2.9,6.4-6.4c0-1.3-0.4-2.4-1-3.4l11-11c0.7,0.3,1.4,0.5,2.1,0.5c2.8,0,5.1-2.3,5.1-5.1
		c0-0.8-0.2-1.5-0.5-2.1l30.3-30.3c1.1,0.7,2.3,1.1,3.6,1.1c3.8,0,6.9-3.1,6.9-6.9c0-1.3-0.4-2.6-1.1-3.6l16.6-16.6
		c0.5,0.2,1,0.3,1.6,0.3c2.8,0,5.1-2.3,5.1-5.1c0-0.6-0.1-1.1-0.3-1.6L616,0h-1.4l-22.2,22.2c-0.9-1.5-2.5-2.5-4.4-2.5
		c-2.8,0-5.1,2.3-5.1,5.1c0,1.9,1,3.5,2.5,4.4l-16.2,16.2c-1.3-1.5-3.1-2.4-5.2-2.4c-3.8,0-6.9,3.1-6.9,6.9c0,2.1,0.9,4,2.4,5.2
		l-30,30c-0.9-1.3-2.4-2.1-4.1-2.1c-2.8,0-5.1,2.3-5.1,5.1c0,1.7,0.8,3.2,2.1,4.1L511.6,103c-1.2-1.3-2.9-2.2-4.8-2.2
		c-3.5,0-6.4,2.9-6.4,6.4c0,1.9,0.8,3.6,2.2,4.8L490,124.6c-2.1-1.7-4.7-2.7-7.6-2.7c-6.6,0-12,5.4-12,12c0,2.9,1,5.5,2.7,7.6
		L429.6,185c-0.9-0.7-1.9-1.1-3.1-1.1c-0.4,0-0.9,0.1-1.3,0.2c-2.2,0.6-3.8,2.6-3.8,4.9c0,1.2,0.4,2.2,1.1,3.1l-4.8,4.8
		c-1.8-1.8-4.3-2.9-7.1-2.9c-5.6,0-10.1,4.5-10.1,10.1c0,2.8,1.1,5.3,2.9,7.1l-43.5,43.5c-0.9-0.4-1.9-0.7-2.9-0.7
		c-3.8,0-6.9,3.1-6.9,6.9c0,1,0.2,2,0.7,2.9L297.5,317c-1.8-2.5-4.8-4.2-8.2-4.2c-5.6,0-10.1,4.5-10.1,10.1c0,3.4,1.6,6.3,4.2,8.2
		l-48.9,48.9c-1.8-2.5-4.8-4.1-8.1-4.1c-5.6,0-10.1,4.5-10.1,10.1c0,3.3,1.6,6.3,4.1,8.1l-31,31l-22.2,22.2
		c-0.9-1.5-2.5-2.5-4.4-2.5c-2.8,0-5.1,2.3-5.1,5.1c0,1.9,1,3.5,2.5,4.4l-16.2,16.2c-1.3-1.5-3.1-2.4-5.2-2.4
		c-3.8,0-6.9,3.1-6.9,6.9c0,2.1,0.9,4,2.4,5.2l-30,30c-0.9-1.3-2.4-2.1-4.1-2.1c-2.8,0-5.1,2.3-5.1,5.1c0,1.7,0.8,3.2,2.1,4.1
		l-10.7,10.7c-1.2-1.3-2.9-2.2-4.8-2.2c-3.5,0-6.4,2.9-6.4,6.4c0,1.9,0.8,3.6,2.2,4.8l-12.5,12.5c-2.1-1.7-4.7-2.7-7.6-2.7
		c-6.6,0-12,5.4-12,12c0,2.9,1,5.5,2.7,7.6L4.4,610.2c-0.9-0.7-1.9-1.1-3.1-1.1c-0.4,0-0.9,0.1-1.3,0.2v9.9c0.4,0.1,0.8,0.2,1.3,0.2
		C4.1,619.3,6.4,617,6.4,614.2z"/>
	<path fill="#231F20" d="M6.1,425.2c0-1.6-0.4-3.1-1-4.4l12.1-12.1c1.7,3.1,4.9,5.1,8.7,5.1c5.4,0,9.9-4.4,9.9-9.9
		c0-3.7-2.1-7-5.1-8.7l18.6-18.6c0.9,0.5,2,0.8,3.2,0.8c3.5,0,6.4-2.9,6.4-6.4c0-1.1-0.3-2.2-0.8-3.2l20.2-20.2
		c1.1,2.3,3.5,3.9,6.2,3.9c3.8,0,6.9-3.1,6.9-6.9c0-2.7-1.6-5.1-3.9-6.2l23-23c0.9,1.7,2.7,2.8,4.7,2.8c3,0,5.4-2.4,5.4-5.4
		c0-2-1.1-3.8-2.8-4.7l29.4-29.4c1.8,1,3.8,1.5,5.9,1.5c6.9,0,12.5-5.6,12.5-12.5c0-2.1-0.5-4.2-1.5-5.9l21.7-21.7
		c1.3,0.6,2.8,1,4.4,1c5.9,0,10.6-4.8,10.6-10.6c0-1.6-0.3-3-1-4.4l14.5-14.5c1.3,1.4,3.1,2.3,5.1,2.3c3.8,0,6.9-3.1,6.9-6.9
		c0-2-0.9-3.9-2.3-5.1l34.3-34.3c1.5,1.1,3.3,1.7,5.3,1.7c5,0,9.1-4.1,9.1-9.1c0-2-0.6-3.8-1.7-5.3l17.1-17.1c1.8,1,4,1.6,6.2,1.6
		c7.1,0,12.9-5.8,12.9-12.9c0-2.3-0.6-4.4-1.6-6.2L327,98.9c1.7,2.2,4.4,3.7,7.5,3.7c5.2,0,9.5-4.3,9.5-9.5c0-3-1.4-5.8-3.7-7.5
		l27.3-27.3c0.5,2.6,2.8,4.5,5.5,4.5c3.1,0,5.6-2.5,5.6-5.6c0-2.7-1.9-5-4.5-5.5L391.9,34c1.8,2.9,5,4.8,8.7,4.8
		c5.7,0,10.2-4.6,10.2-10.2c0-3.6-1.9-6.8-4.8-8.7l10.3-10.3c1.4,0.6,2.9,1,4.4,1c1.6,0,3.1-0.4,4.5-1c3.6-1.7,6.1-5.4,6.1-9.6h-6.1
		h-15.1c0,3.9,2.1,7.3,5.3,9.2l-10.2,10.2c-1.4-0.7-2.9-1.1-4.6-1.1c-5.7,0-10.2,4.6-10.2,10.2c0,1.6,0.4,3.2,1.1,4.6l-18.5,18.5
		c-2.9,0.1-5.3,2.5-5.4,5.4l-28,28c-1.4-0.9-3.1-1.4-5-1.4c-5.2,0-9.5,4.3-9.5,9.5c0,1.8,0.5,3.5,1.4,5l-21.3,21.3
		c-2.3-3.5-6.3-5.8-10.7-5.8c-7.1,0-12.9,5.8-12.9,12.9c0,4.5,2.3,8.4,5.8,10.7l-16.9,16.9c-1.7-1.8-4.1-3-6.8-3
		c-5,0-9.1,4.1-9.1,9.1c0,2.7,1.2,5.1,3,6.8l-34.4,34.4c-1.1-0.7-2.4-1.1-3.7-1.1c-3.8,0-6.9,3.1-6.9,6.9c0,1.4,0.4,2.7,1.1,3.7
		l-14.4,14.4c-1.8-3.2-5.3-5.3-9.2-5.3c-5.9,0-10.6,4.8-10.6,10.6c0,3.9,2.1,7.3,5.3,9.2L163.5,261c-2.2-3.4-6.1-5.7-10.5-5.7
		c-6.9,0-12.5,5.6-12.5,12.5c0,4.4,2.3,8.2,5.7,10.5l-29.5,29.5c-0.5-0.2-1.1-0.3-1.6-0.3c-3,0-5.4,2.4-5.4,5.4
		c0,0.6,0.1,1.1,0.3,1.6l-23.6,23.6c-0.6-0.2-1.3-0.3-2-0.3c-3.8,0-6.9,3.1-6.9,6.9c0,0.7,0.1,1.4,0.3,2L57.4,367
		c-1.2-1.5-3-2.4-5-2.4c-3.5,0-6.4,2.9-6.4,6.4c0,2,0.9,3.8,2.4,5l-18.7,18.7c-1.2-0.5-2.4-0.8-3.8-0.8c-5.4,0-9.9,4.4-9.9,9.9
		c0,1.3,0.3,2.6,0.8,3.8L4.7,419.8c-1.1-1.8-2.7-3.3-4.7-4.3v9.6v9.6C3.6,433.1,6.1,429.4,6.1,425.2z"/>
	<path fill="#231F20" d="M22.8,569.2c5.6,0,10.1-4.5,10.1-10.1c0-2.5-0.9-4.7-2.3-6.5l25.3-25.3c0.9,0.8,2.1,1.3,3.4,1.3
		c2.8,0,5.1-2.3,5.1-5.1c0-1.3-0.5-2.5-1.3-3.4l27.7-27.7c1.8,1.8,4.3,2.9,7.1,2.9c5.6,0,10.1-4.5,10.1-10.1c0-2.8-1.1-5.3-2.9-7.1
		l23.5-23.5c2,1.5,4.4,2.3,7.1,2.3c6.6,0,12-5.4,12-12c0-2.7-0.9-5.1-2.3-7.1l12.6-12.6l19.4-19.4c1.2,1,2.7,1.6,4.4,1.6
		c3.8,0,6.9-3.1,6.9-6.9c0-1.7-0.6-3.2-1.6-4.4l40.7-40.7c1.3,1.5,3.2,2.5,5.3,2.5c3.8,0,6.9-3.1,6.9-6.9c0-2.2-1-4.1-2.5-5.3
		l7.5-7.5c2.2,2.2,5.2,3.6,8.5,3.6c6.6,0,12-5.4,12-12c0-3.3-1.4-6.4-3.6-8.5l32.6-32.6c1.9,2,4.5,3.3,7.5,3.3
		c5.6,0,10.1-4.5,10.1-10.1c0-3-1.3-5.6-3.3-7.5l5-5c1.3,1.4,3.1,2.3,5.2,2.3c3.8,0,6.9-3.1,6.9-6.9c0-2.1-0.9-3.9-2.3-5.2
		l24.8-24.8c1.5,1,3.4,1.5,5.3,1.5c5.6,0,10.1-4.5,10.1-10.1c0-1.9-0.6-3.8-1.5-5.3l15-15c1.1,0.7,2.4,1.1,3.8,1.1
		c3.8,0,6.9-3.1,6.9-6.9c0-1.4-0.4-2.7-1.1-3.8l38.4-38.4v0l16.4-16.4c1.8,1.5,4,2.3,6.5,2.3c5.6,0,10.1-4.5,10.1-10.1
		c0-2.5-0.9-4.7-2.3-6.5l25.3-25.3c0.9,0.8,2.1,1.3,3.4,1.3c2.8,0,5.1-2.3,5.1-5.1c0-1.3-0.5-2.5-1.3-3.4L516,67.2
		c1.8,1.8,4.3,2.9,7.1,2.9c5.6,0,10.1-4.5,10.1-10.1c0-2.8-1.1-5.3-2.9-7.1l23.5-23.5c2,1.5,4.4,2.3,7.1,2.3c6.6,0,12-5.4,12-12
		c0-2.7-0.9-5.1-2.3-7.1L583.2,0h-1.4L570,11.8c-2.2-2.5-5.4-4.1-9-4.1c-6.6,0-12,5.4-12,12c0,3.6,1.6,6.8,4.1,9l-23.5,23.5
		c-1.8-1.5-4-2.3-6.5-2.3c-5.6,0-10.1,4.5-10.1,10.1c0,2.5,0.9,4.7,2.3,6.5l-27.8,27.8c-0.8-0.6-1.9-1-3-1c-2.8,0-5.1,2.3-5.1,5.1
		c0,1.1,0.4,2.2,1,3l-25.3,25.3c-1.8-1.8-4.3-2.9-7.1-2.9c-5.6,0-10.1,4.5-10.1,10.1c0,2.8,1.1,5.3,2.9,7.1l-15.6,15.6l0,0l-39,39
		c-1.3-1.4-3.1-2.3-5.1-2.3c-3.8,0-6.9,3.1-6.9,6.9c0,2,0.9,3.9,2.3,5.1l-14.8,14.8c-1.8-2.4-4.8-4-8-4c-5.6,0-10.1,4.5-10.1,10.1
		c0,3.3,1.6,6.2,4,8l-24.8,24.8c-1.1-0.7-2.4-1.1-3.7-1.1c-3.8,0-6.9,3.1-6.9,6.9c0,1.4,0.4,2.7,1.1,3.7l-5.2,5.2
		c-1.7-1.3-3.8-2-6.1-2c-5.6,0-10.1,4.5-10.1,10.1c0,2.3,0.8,4.4,2,6.1l-32.7,32.7c-2.1-1.7-4.8-2.8-7.7-2.8c-6.6,0-12,5.4-12,12
		c0,2.9,1,5.6,2.8,7.7l-7.7,7.7c-1-0.6-2.2-1-3.5-1c-3.8,0-6.9,3.1-6.9,6.9c0,1.3,0.4,2.5,1,3.5l-40.9,40.9
		c-1.2-1.1-2.8-1.8-4.6-1.8c-3.8,0-6.9,3.1-6.9,6.9c0,1.8,0.7,3.4,1.8,4.6l-20.1,20.1h0L144.8,437c-2.2-2.5-5.4-4.1-9-4.1
		c-6.6,0-12,5.4-12,12c0,3.6,1.6,6.8,4.1,9l-23.5,23.5c-1.8-1.5-4-2.3-6.5-2.3c-5.6,0-10.1,4.5-10.1,10.1c0,2.5,0.9,4.7,2.3,6.5
		l-27.8,27.8c-0.8-0.6-1.9-1-3-1c-2.8,0-5.1,2.3-5.1,5.1c0,1.1,0.4,2.2,1,3L30,551.9c-1.8-1.8-4.3-2.9-7.1-2.9
		c-5.6,0-10.1,4.5-10.1,10.1c0,2.8,1.1,5.3,2.9,7.1L0,581.8v1.4l16.4-16.4C18.1,568.3,20.4,569.2,22.8,569.2z"/>
	<path fill="#231F20" d="M25.2,756.7c3.8,0,6.9-3.1,6.9-6.9c0-1.7-0.6-3.2-1.6-4.4l9.4-9.4c2.2,2.4,5.4,3.9,8.9,3.9
		c6.6,0,12-5.4,12-12c0-3.5-1.5-6.7-3.9-8.9l18.9-18.9c0.2,0,0.5,0.1,0.7,0.1c2.8,0,5.1-2.3,5.1-5.1c0-0.2,0-0.5-0.1-0.7l35.1-35.1
		c0.9,0.9,2.1,1.4,3.5,1.4c2.8,0,5.1-2.3,5.1-5.1c0-1.4-0.5-2.6-1.4-3.5l16.7-16.7c2.1,3.5,5.9,5.8,10.3,5.8c6.6,0,12-5.4,12-12
		c0-4.4-2.3-8.2-5.8-10.3l44.2-44.2c1.2,1.2,2.9,1.9,4.7,1.9c3.8,0,6.9-3.1,6.9-6.9c0-1.8-0.7-3.5-1.9-4.7l8.8-8.8
		c1.8,1.6,4.2,2.7,6.8,2.7c5.6,0,10.1-4.5,10.1-10.1c0-2.6-1-5-2.7-6.8l3.6-3.6c0.8,1.7,2.6,2.8,4.6,2.8c2.8,0,5.1-2.3,5.1-5.1
		c0-2-1.2-3.7-2.8-4.6l15.1-15.1c1.2,2.2,3.4,3.7,6.1,3.7c3.8,0,6.9-3.1,6.9-6.9c0-2.6-1.5-4.9-3.7-6.1l16.7-16.7c0.9,1.2,2.4,2,4,2
		c2.8,0,5.1-2.3,5.1-5.1c0-1.6-0.8-3.1-2-4l30.3-30.3c0.9,0.4,1.8,0.6,2.8,0.6c3.8,0,6.9-3.1,6.9-6.9c0-1-0.2-1.9-0.6-2.8l18.9-18.9
		l0,0l25.1-25.1c1.8,2.8,4.9,4.6,8.5,4.6c5.6,0,10.1-4.5,10.1-10.1c0-3.6-1.8-6.7-4.6-8.5l35.3-35.3l0,0l20.8-20.8
		c1.2,1,2.7,1.6,4.4,1.6c3.8,0,6.9-3.1,6.9-6.9c0-1.7-0.6-3.2-1.6-4.4l9.4-9.4c2.2,2.4,5.4,3.9,8.9,3.9c6.6,0,12-5.4,12-12
		c0-3.5-1.5-6.7-3.9-8.9l18.9-18.9c0.2,0,0.5,0.1,0.7,0.1c2.8,0,5.1-2.3,5.1-5.1c0-0.2,0-0.5-0.1-0.7l35.1-35.1
		c0.9,0.9,2.1,1.4,3.5,1.4c2.8,0,5.1-2.3,5.1-5.1c0-1.4-0.5-2.6-1.4-3.5l16.7-16.7c2.1,3.5,5.9,5.8,10.3,5.8c6.6,0,12-5.4,12-12
		c0-4.4-2.3-8.2-5.8-10.3l44.2-44.2c1.2,1.2,2.9,1.9,4.7,1.9c3.8,0,6.9-3.1,6.9-6.9c0-1.8-0.7-3.5-1.9-4.7l8.8-8.8
		c1.8,1.6,4.2,2.7,6.8,2.7c5.6,0,10.1-4.5,10.1-10.1c0-2.6-1-5-2.7-6.8l3.6-3.6c0.8,1.7,2.6,2.8,4.6,2.8c2.8,0,5.1-2.3,5.1-5.1
		c0-2-1.2-3.7-2.8-4.6l15.1-15.1c1.2,2.2,3.4,3.7,6.1,3.7c3.8,0,6.9-3.1,6.9-6.9c0-2.6-1.5-4.9-3.7-6.1l16.7-16.7c0.9,1.2,2.4,2,4,2
		c2.8,0,5.1-2.3,5.1-5.1c0-1.6-0.8-3.1-2-4L747.9,28c0.9,0.4,1.8,0.6,2.8,0.6c3.8,0,6.9-3.1,6.9-6.9c0-1-0.2-1.9-0.6-2.8L775.9,0
		h-1.4l-18,18c-1.2-1.9-3.3-3.2-5.8-3.2c-3.8,0-6.9,3.1-6.9,6.9c0,2.4,1.3,4.6,3.2,5.8l-30.3,30.3c-0.7-0.3-1.4-0.5-2.2-0.5
		c-2.8,0-5.1,2.3-5.1,5.1c0,0.8,0.2,1.6,0.5,2.2l-17.1,17.1c-0.7-0.2-1.4-0.4-2.2-0.4c-3.8,0-6.9,3.1-6.9,6.9c0,0.8,0.1,1.5,0.4,2.2
		l-15.7,15.7c-0.4-0.1-0.8-0.2-1.2-0.2c-2.8,0-5.1,2.3-5.1,5.1c0,0.4,0.1,0.8,0.2,1.2l-4,4c-1.8-1.6-4.2-2.6-6.8-2.6
		c-5.6,0-10.1,4.5-10.1,10.1c0,2.6,1,5,2.6,6.8l-8.8,8.8c-1.2-0.9-2.6-1.5-4.3-1.5c-3.8,0-6.9,3.1-6.9,6.9c0,1.6,0.6,3.1,1.5,4.3
		l-44.4,44.4c-1.6-0.8-3.4-1.2-5.2-1.2c-6.6,0-12,5.4-12,12c0,1.9,0.4,3.7,1.2,5.2l-16.9,16.9c-0.8-0.6-1.8-0.9-2.9-0.9
		c-2.8,0-5.1,2.3-5.1,5.1c0,1.1,0.4,2.1,0.9,2.9l-34.7,34.7c-0.7-1.9-2.6-3.2-4.7-3.2c-2.8,0-5.1,2.3-5.1,5.1c0,2.2,1.3,4,3.2,4.7
		l-18.6,18.6c-2-1.6-4.6-2.5-7.3-2.5c-6.6,0-12,5.4-12,12c0,2.7,0.9,5.3,2.5,7.3l-9.4,9.4c-1.2-1.1-2.8-1.7-4.5-1.7
		c-3.8,0-6.9,3.1-6.9,6.9c0,1.7,0.7,3.3,1.7,4.5l-20.1,20.1l0,0L389,385.5c-1.4-0.7-3-1.1-4.6-1.1c-5.6,0-10.1,4.5-10.1,10.1
		c0,1.7,0.4,3.2,1.1,4.6l-26,26l0,0l-18,18c-1.2-1.9-3.3-3.2-5.8-3.2c-3.8,0-6.9,3.1-6.9,6.9c0,2.4,1.3,4.6,3.2,5.8l-30.3,30.3
		c-0.7-0.3-1.4-0.5-2.2-0.5c-2.8,0-5.1,2.3-5.1,5.1c0,0.8,0.2,1.6,0.5,2.2l-17.1,17.1c-0.7-0.2-1.4-0.4-2.2-0.4
		c-3.8,0-6.9,3.1-6.9,6.9c0,0.8,0.1,1.5,0.4,2.2l-15.7,15.7c-0.4-0.1-0.8-0.2-1.2-0.2c-2.8,0-5.1,2.3-5.1,5.1c0,0.4,0.1,0.8,0.2,1.2
		l-4,4c-1.8-1.6-4.2-2.6-6.8-2.6c-5.6,0-10.1,4.5-10.1,10.1c0,2.6,1,5,2.6,6.8l-8.8,8.8c-1.2-0.9-2.6-1.5-4.3-1.5
		c-3.8,0-6.9,3.1-6.9,6.9c0,1.6,0.6,3.1,1.5,4.3L156,618.5c-1.6-0.8-3.4-1.2-5.2-1.2c-6.6,0-12,5.4-12,12c0,1.9,0.4,3.7,1.2,5.2
		L123,651.5c-0.8-0.6-1.8-0.9-2.9-0.9c-2.8,0-5.1,2.3-5.1,5.1c0,1.1,0.4,2.1,0.9,2.9l-34.7,34.7c-0.7-1.9-2.6-3.2-4.7-3.2
		c-2.8,0-5.1,2.3-5.1,5.1c0,2.2,1.3,4,3.2,4.7L56,718.5c-2-1.6-4.6-2.5-7.3-2.5c-6.6,0-12,5.4-12,12c0,2.7,0.9,5.3,2.5,7.3l-9.4,9.4
		c-1.2-1.1-2.8-1.7-4.5-1.7c-3.8,0-6.9,3.1-6.9,6.9c0,1.7,0.7,3.3,1.7,4.5L0,774.5v1.4l20.8-20.8C22,756.1,23.5,756.7,25.2,756.7z"
		/>
	<path fill="#231F20" d="M24.7,489.3c6.6,0,12-5.4,12-12c0-4.3-2.3-8.1-5.7-10.2l12.9-12.9c0.8,0.6,1.9,1,3,1c2.8,0,5.1-2.3,5.1-5.1
		c0-1.1-0.4-2.1-1-3l16.3-16.3c1.1,0.8,2.5,1.3,4,1.3c3.8,0,6.9-3.1,6.9-6.9c0-1.5-0.5-2.9-1.3-4l8.6-8.7c1.5,0.9,3.3,1.5,5.3,1.5
		c5.6,0,10.1-4.5,10.1-10.1c0-1.9-0.6-3.7-1.5-5.3l54.8-54.8c1.8,2.8,4.9,4.6,8.5,4.6c5.6,0,10.1-4.5,10.1-10.1
		c0-3.5-1.8-6.7-4.6-8.5l16.4-16.4c1.1,0.9,2.6,1.4,4.1,1.4c3.8,0,6.9-3.1,6.9-6.9c0-1.5-0.5-3-1.4-4.1l20.8-20.8
		c1.2,2.1,3.4,3.6,6,3.6c3.8,0,6.9-3.1,6.9-6.9c0-2.6-1.5-4.9-3.6-6l31.6-31.6c1.9,2.2,4.6,3.6,7.7,3.6c5.6,0,10.1-4.5,10.1-10.1
		c0-3.1-1.4-5.9-3.6-7.7l40.9-40.9c1.2,1.1,2.8,1.8,4.6,1.8c3.8,0,6.9-3.1,6.9-6.9c0-1.8-0.7-3.4-1.8-4.6l21.3-21.3
		c1.2,1.2,2.9,1.9,4.7,1.9c3.8,0,6.9-3.1,6.9-6.9c0-1.8-0.7-3.5-1.9-4.7l11-11c1.9,2.2,4.6,3.6,7.7,3.6c5.6,0,10.1-4.5,10.1-10.1
		c0-3.1-1.4-5.8-3.6-7.7l17.6-17.6c1.6,1.1,3.6,1.8,5.8,1.8c5.6,0,10.1-4.5,10.1-10.1c0-2.2-0.7-4.1-1.8-5.8l16.4-16.4l0,0
		l14.5-14.5c2.1,3.4,5.9,5.7,10.2,5.7c6.6,0,12-5.4,12-12c0-4.3-2.3-8.1-5.7-10.2l12.9-12.9c0.8,0.6,1.9,1,3,1
		c2.8,0,5.1-2.3,5.1-5.1c0-1.1-0.4-2.1-1-3l16.3-16.3c1.1,0.8,2.5,1.3,4,1.3c3.8,0,6.9-3.1,6.9-6.9h-13.7c0,1.9,0.8,3.7,2.1,4.9
		l-16.2,16.2c-0.9-0.8-2.1-1.4-3.5-1.4c-2.8,0-5.1,2.3-5.1,5.1c0,1.3,0.5,2.6,1.4,3.5l-13.1,13.1c-1.6-0.8-3.4-1.3-5.4-1.3
		c-6.6,0-12,5.4-12,12c0,1.9,0.5,3.8,1.3,5.4l-14,14l-17,17c-1.9-2.2-4.6-3.5-7.7-3.5c-5.6,0-10.1,4.5-10.1,10.1
		c0,3.1,1.4,5.8,3.5,7.7l-17.7,17.7c-1.6-1.1-3.6-1.8-5.8-1.8c-5.6,0-10.1,4.5-10.1,10.1c0,2.1,0.7,4.1,1.8,5.8l-11.2,11.2
		c-1.2-0.9-2.6-1.5-4.3-1.5c-3.8,0-6.9,3.1-6.9,6.9c0,1.6,0.6,3.1,1.5,4.3l-21.3,21.3c-1.2-1-2.7-1.6-4.4-1.6
		c-3.8,0-6.9,3.1-6.9,6.9c0,1.7,0.6,3.2,1.6,4.4l-41,41c-1.6-1.1-3.6-1.8-5.8-1.8c-5.6,0-10.1,4.5-10.1,10.1c0,2.1,0.7,4.1,1.8,5.8
		l-32,32c-0.7-0.3-1.5-0.4-2.3-0.4c-3.8,0-6.9,3.1-6.9,6.9c0,0.8,0.1,1.6,0.4,2.3l-21,21c-1.2-1.2-2.9-2-4.8-2
		c-3.8,0-6.9,3.1-6.9,6.9c0,1.9,0.8,3.6,2,4.8l-16.5,16.5c-1.4-0.7-3-1.1-4.6-1.1c-5.6,0-10.1,4.5-10.1,10.1c0,1.7,0.4,3.3,1.1,4.6
		l-54.9,54.9c-1.8-2.4-4.8-4-8.1-4c-5.6,0-10.1,4.5-10.1,10.1c0,3.3,1.6,6.2,4,8.1l-8.5,8.5c-1.2-1.3-3-2.1-4.9-2.1
		c-3.8,0-6.9,3.1-6.9,6.9c0,1.9,0.8,3.7,2.1,4.9l-16.2,16.2c-0.9-0.8-2.1-1.4-3.5-1.4c-2.8,0-5.1,2.3-5.1,5.1c0,1.3,0.5,2.6,1.4,3.5
		l-13.1,13.1c-1.6-0.8-3.4-1.3-5.4-1.3c-6.6,0-12,5.4-12,12c0,1.9,0.5,3.8,1.3,5.4l-14,14v1.4l14.5-14.5
		C16.6,487,20.4,489.3,24.7,489.3z"/>
	<path fill="#231F20" d="M809.5,809.6c-5.6,0-10.1,4.5-10.1,10.1c0,1.7,0.4,3.2,1.1,4.6l-26,26h1.4l25.1-25.1
		c1.8,2.8,4.9,4.6,8.5,4.6c5.6,0,10.1-4.5,10.1-10.1c0-3.6-1.8-6.7-4.6-8.5l35.3-35.3v-1.4l-36.2,36.2
		C812.8,810,811.2,809.6,809.5,809.6z"/>
	<path fill="#231F20" d="M825.7,510.1c-5.6,0-10.1,4.5-10.1,10.1c0,3.1,1.4,5.8,3.5,7.7l-17.7,17.7c-1.6-1.1-3.6-1.8-5.8-1.8
		c-5.6,0-10.1,4.5-10.1,10.1c0,2.1,0.7,4.1,1.8,5.8l-11.2,11.2c-1.2-0.9-2.6-1.5-4.3-1.5c-3.8,0-6.9,3.1-6.9,6.9
		c0,1.6,0.6,3.1,1.5,4.3l-21.3,21.3c-1.2-1-2.7-1.6-4.4-1.6c-3.8,0-6.9,3.1-6.9,6.9c0,1.7,0.6,3.2,1.6,4.4l-41,41
		c-1.6-1.1-3.6-1.8-5.8-1.8c-5.6,0-10.1,4.5-10.1,10.1c0,2.1,0.7,4.1,1.8,5.8l-32,32c-0.7-0.3-1.5-0.4-2.3-0.4
		c-3.8,0-6.9,3.1-6.9,6.9c0,0.8,0.1,1.6,0.4,2.3l-21,21c-1.2-1.2-2.9-2-4.8-2c-3.8,0-6.9,3.1-6.9,6.9c0,1.9,0.8,3.6,2,4.8
		l-16.5,16.5c-1.4-0.7-3-1.1-4.6-1.1c-5.6,0-10.1,4.5-10.1,10.1c0,1.7,0.4,3.3,1.1,4.6L524.1,823c-1.8-2.4-4.8-4-8.1-4
		c-5.6,0-10.1,4.5-10.1,10.1c0,3.3,1.6,6.2,4,8.1l-8.5,8.5c-1.2-1.3-3-2.1-4.9-2.1c-3.8,0-6.9,3.1-6.9,6.9h13.7c0-1.5-0.5-2.9-1.3-4
		l8.6-8.7c1.5,0.9,3.3,1.5,5.3,1.5c5.6,0,10.1-4.5,10.1-10.1c0-1.9-0.6-3.7-1.5-5.3l54.8-54.8c1.8,2.8,4.9,4.6,8.5,4.6
		c5.6,0,10.1-4.5,10.1-10.1c0-3.5-1.8-6.7-4.6-8.5l16.4-16.4c1.1,0.9,2.6,1.4,4.1,1.4c3.8,0,6.9-3.1,6.9-6.9c0-1.5-0.5-3-1.4-4.1
		l20.8-20.8c1.2,2.1,3.4,3.6,6,3.6c3.8,0,6.9-3.1,6.9-6.9c0-2.6-1.5-4.9-3.6-6l31.6-31.6c1.9,2.2,4.6,3.6,7.7,3.6
		c5.6,0,10.1-4.5,10.1-10.1c0-3.1-1.4-5.9-3.6-7.7l40.9-40.9c1.2,1.1,2.8,1.8,4.6,1.8c3.8,0,6.9-3.1,6.9-6.9c0-1.8-0.7-3.4-1.8-4.6
		l21.3-21.3c1.2,1.2,2.9,1.9,4.7,1.9c3.8,0,6.9-3.1,6.9-6.9c0-1.8-0.7-3.5-1.9-4.7l11-11c1.9,2.2,4.6,3.6,7.7,3.6
		c5.6,0,10.1-4.5,10.1-10.1c0-3.1-1.4-5.8-3.6-7.7l17.6-17.6c1.6,1.1,3.6,1.8,5.8,1.8c5.6,0,10.1-4.5,10.1-10.1
		c0-2.2-0.7-4.1-1.8-5.8l16.4-16.4v-1.4l-17,17C831.6,511.5,828.8,510.1,825.7,510.1z"/>
	<path fill="#231F20" d="M835.3,850.4h15.1v-9.6c-1.4-0.6-2.9-1-4.5-1C840,839.8,835.3,844.5,835.3,850.4z"/>
	<path fill="#231F20" d="M806.3,618.5c-3.8,0-6.9,3.1-6.9,6.9c0,2,0.9,3.9,2.3,5.1l-14.8,14.8c-1.8-2.4-4.8-4-8-4
		c-5.6,0-10.1,4.5-10.1,10.1c0,3.3,1.6,6.2,4,8l-24.8,24.8c-1.1-0.7-2.4-1.1-3.7-1.1c-3.8,0-6.9,3.1-6.9,6.9c0,1.4,0.4,2.7,1.1,3.7
		l-5.2,5.2c-1.7-1.3-3.8-2-6.1-2c-5.6,0-10.1,4.5-10.1,10.1c0,2.3,0.8,4.4,2,6.1l-32.7,32.7c-2.1-1.7-4.8-2.8-7.7-2.8
		c-6.6,0-12,5.4-12,12c0,2.9,1,5.6,2.8,7.7l-7.7,7.7c-1-0.6-2.2-1-3.5-1c-3.8,0-6.9,3.1-6.9,6.9c0,1.3,0.4,2.5,1,3.5l-40.9,40.9
		c-1.2-1.1-2.8-1.8-4.6-1.8c-3.8,0-6.9,3.1-6.9,6.9c0,1.8,0.7,3.4,1.8,4.6l-20.1,20.1h1.4l19.4-19.4c1.2,1,2.7,1.6,4.4,1.6
		c3.8,0,6.9-3.1,6.9-6.9c0-1.7-0.6-3.2-1.6-4.4l40.7-40.7c1.3,1.5,3.2,2.5,5.3,2.5c3.8,0,6.9-3.1,6.9-6.9c0-2.2-1-4.1-2.5-5.3
		l7.5-7.5c2.2,2.2,5.2,3.6,8.5,3.6c6.6,0,12-5.4,12-12c0-3.3-1.4-6.4-3.6-8.5l32.6-32.6c1.9,2,4.5,3.3,7.5,3.3
		c5.6,0,10.1-4.5,10.1-10.1c0-3-1.3-5.6-3.3-7.5l5-5c1.3,1.4,3.1,2.3,5.2,2.3c3.8,0,6.9-3.1,6.9-6.9c0-2.1-0.9-3.9-2.3-5.2
		l24.8-24.8c1.5,0.9,3.4,1.5,5.3,1.5c5.6,0,10.1-4.5,10.1-10.1c0-1.9-0.6-3.8-1.5-5.3l15-15c1.1,0.7,2.4,1.1,3.8,1.1
		c3.8,0,6.9-3.1,6.9-6.9c0-1.4-0.4-2.7-1.1-3.8l38.4-38.4v-1.4l-39,39C810.1,619.4,808.3,618.5,806.3,618.5z"/>
	<path fill="#231F20" d="M846.6,614.2c0,1.2,0.4,2.2,1.1,3.1l-4.8,4.8c-1.8-1.8-4.3-2.9-7.1-2.9c-5.6,0-10.1,4.5-10.1,10.1
		c0,2.8,1.1,5.3,2.9,7.1L785,679.9c-0.9-0.4-1.9-0.7-2.9-0.7c-3.8,0-6.9,3.1-6.9,6.9c0,1,0.2,2,0.7,2.9l-53.2,53.2
		c-1.8-2.5-4.8-4.2-8.2-4.2c-5.6,0-10.1,4.5-10.1,10.1c0,3.4,1.6,6.3,4.2,8.2l-48.9,48.9c-1.8-2.5-4.8-4.1-8.1-4.1
		c-5.6,0-10.1,4.5-10.1,10.1c0,3.3,1.6,6.3,4.1,8.1l-31,31h1.4l30.4-30.4c1.5,0.9,3.3,1.4,5.2,1.4c5.6,0,10.1-4.5,10.1-10.1
		c0-1.9-0.5-3.7-1.4-5.2l49.2-49.2c1.5,0.9,3.2,1.4,5.1,1.4c5.6,0,10.1-4.5,10.1-10.1c0-1.9-0.5-3.6-1.4-5.1l53.2-53.2
		c1.2,1.8,3.3,3.1,5.7,3.1c3.8,0,6.9-3.1,6.9-6.9c0-2.4-1.2-4.5-3.1-5.7l43.3-43.3c1.8,1.5,4,2.4,6.5,2.4c5.6,0,10.1-4.5,10.1-10.1
		c0-2.5-0.9-4.7-2.4-6.5l4.8-4.8c0.6,0.5,1.3,0.9,2.1,1.1v-9.9C848.2,609.9,846.6,611.8,846.6,614.2z"/>
	<path fill="#231F20" d="M844.4,719.4c0,1.8,0.7,3.5,1.8,4.7L833,737.4c-1.1-0.8-2.5-1.3-4-1.3c-3.8,0-6.9,3.1-6.9,6.9
		c0,1.5,0.5,2.8,1.3,4l-6.3,6.3c-1.9-2.1-4.5-3.4-7.6-3.4c-5.6,0-10.1,4.5-10.1,10.1c0,3,1.3,5.7,3.4,7.6l-11.6,11.6
		c-1.2-1.8-3.3-2.9-5.6-2.9c-3.8,0-6.9,3.1-6.9,6.9c0,2.3,1.1,4.4,2.9,5.6l-30.1,30.1c-1.8-2-4.5-3.2-7.4-3.2
		c-5.6,0-10.1,4.5-10.1,10.1c0,2.9,1.2,5.5,3.2,7.4l-10.3,10.3c-1.8-1.9-4.4-3.1-7.3-3.1c-5.6,0-10.1,4.5-10.1,10.1h20.2
		c0-2.3-0.8-4.5-2.1-6.2l10.4-10.5c1.7,1.3,3.8,2.1,6.2,2.1c5.6,0,10.1-4.5,10.1-10.1c0-2.3-0.8-4.5-2.1-6.2l30.3-30.3
		c0.9,0.5,2,0.7,3.1,0.7c3.8,0,6.9-3.1,6.9-6.9c0-1.1-0.3-2.2-0.7-3.1l11.9-11.9c1.7,1.2,3.7,1.9,5.9,1.9c5.6,0,10.1-4.5,10.1-10.1
		c0-2.2-0.7-4.3-1.9-5.9l6.3-6.3c1.2,1.3,3,2.1,5,2.1c3.8,0,6.9-3.1,6.9-6.9c0-2-0.8-3.7-2.1-5l13.2-13.2c1,0.9,2.2,1.4,3.5,1.7
		v-14.2C847,712.9,844.4,715.9,844.4,719.4z"/>
</g>
</svg>
