<svg xmlns="http://www.w3.org/2000/svg"><symbol viewBox="0 0 170.6 42.6" id="shape-logo"><title>logo</title> <g> <path d="M167.1,42.1l-6.5-9.9v9.9h-3.8V25.6h4l6.1,9.3v-9.3h3.8v16.6H167.1z"/> <path d="M140.8,42.1V25.6h4.1v16.6H140.8z"/> <path d="M125.1,42.4c-5,0-8-3.4-8-8.5c0-5.1,3.2-8.6,7.9-8.6c1.9,0,3.4,0.4,4.6,1.1l-0.6,3.7
		c-1-0.8-2.3-1.3-3.7-1.3c-2.5,0-4.1,1.9-4.1,5.1c0,3.3,1.8,5.1,4.3,5.1c1.3,0,2.5-0.5,3.8-1.2l0.5,3.4
		C128.5,41.9,126.9,42.4,125.1,42.4z"/> <path d="M98,42.1V25.6h4.1v13h5.1l0.6,3.6H98z"/> <path d="M78.8,32.6l3,6.7h-5.9L78.8,32.6 M78.8,25.3l-8.9,17.3h17.7L78.8,25.3L78.8,25.3z"/> <path d="M55.5,35.3l-3-6.7h5.9L55.5,35.3 M55.5,42.6l8.9-17.3H46.6L55.5,42.6L55.5,42.6z"/> <path d="M30.7,42.4c-4.8,0-7.9-3.5-7.9-8.6c0-5.1,3.1-8.6,7.9-8.6c4.8,0,7.9,3.5,7.9,8.6
		C38.6,38.9,35.5,42.4,30.7,42.4z M30.7,28.5c-2.4,0-3.8,2.1-3.8,5.4c0,3.3,1.4,5.4,3.8,5.4c2.4,0,3.8-2.1,3.8-5.4
		C34.5,30.6,33.1,28.5,30.7,28.5z"/> <path d="M9.7,42.3l-5.6-7.9v7.7H0V25.6h4.1v7.1l5.2-7.1h4.6L8,33.2l6.1,8.4L9.7,42.3z"/> </g> <g> <path d="M87.6,17.3V0.8H98v3.3h-6.3v3h4.8l0.5,3.4h-5.3V14h6.5v3.3H87.6z"/> <path d="M71.7,17.3V0.8h4.1v16.6H71.7z"/> <path d="M56.3,4.3v13.1h-4.1V4.3h-4.6V0.8h13.1l0.6,3.5H56.3z"/> <path d="M32.2,7.3l3,6.7h-5.9L32.2,7.3 M32.2,0l-8.9,17.3H41L32.2,0L32.2,0z"/> <path d="M9.7,17.5L4.1,9.6v7.7H0V0.8h4.1v7.1l5.2-7.1h4.6L8,8.4l6.1,8.4L9.7,17.5z"/> </g> </symbol><symbol viewBox="0 0 17.7 17.3" id="shape-triangle-down"><title>triangle-down</title> <polygon points="8.9,17.3 17.7,0 0,0 8.9,17.3 "/> </symbol><symbol viewBox="0 0 17.7 17.3" id="shape-triangle-right"><title>triangle-right</title> <polygon points="17.5,8.7 0.2,-0.2 0.2,17.5 17.5,8.7 "/> </symbol><symbol viewBox="0 0 17.7 17.3" id="shape-triangle-up"><title>triangle-up</title> <polygon points="8.9,0 0,17.3 17.7,17.3 8.9,0 "/> </symbol></svg>