<?xml version="1.0" encoding="utf-8"?>
<!-- Generator: Adobe Illustrator 16.0.0, SVG Export Plug-In . SVG Version: 6.00 Build 0)  -->
<!DOCTYPE svg PUBLIC "-//W3C//DTD SVG 1.1//EN" "http://www.w3.org/Graphics/SVG/1.1/DTD/svg11.dtd">
<svg version="1.1" id="Layer_1" xmlns="http://www.w3.org/2000/svg" xmlns:xlink="http://www.w3.org/1999/xlink" x="0px" y="0px"
	 width="267.062px" height="222.2px" viewBox="0 0 267.062 222.2" enable-background="new 0 0 267.062 222.2" xml:space="preserve">
<g id="twitter">
	<path d="M259.881,25.559c1.983-6.705-0.284-13.955-5.778-18.321c-3.114-2.493-6.886-3.748-10.711-3.748
		c-3.02,0-6.039,0.791-8.75,2.407c-5.382,3.158-11.013,5.692-16.897,7.483C206.507,4.784,192.57,0,178.243,0
		c-32.836,0-60.038,24.493-64.324,56.162c-26.181-5.601-50.031-20.023-67.212-41.097c-3.271-4.038-8.182-6.341-13.312-6.341
		c-0.43,0-0.886,0.029-1.347,0.059c-5.625,0.444-10.651,3.615-13.493,8.476c-5.772,9.887-8.81,21.166-8.81,32.654
		c0,7.759,1.376,15.308,3.922,22.359c-2.741,3.114-4.328,7.151-4.328,11.42c0,17.024,6.424,32.678,17.131,44.436
		c-0.66,2.937-0.557,6.039,0.406,9.011c3.706,11.604,10.482,21.587,19.25,29.213c-5.692,1.29-11.586,1.953-17.563,1.953
		c-3.099,0-6.234-0.201-9.393-0.557c-0.666-0.082-1.332-0.13-2.01-0.13c-7.19,0-13.703,4.499-16.146,11.427
		c-2.711,7.519,0.157,15.926,6.874,20.248c24.683,15.808,53.199,24.168,82.464,24.168c94.912,0,151.95-76.387,152.969-150.953
		c7.726-6.578,14.517-14.15,20.277-22.602c2.173-2.874,3.464-6.444,3.464-10.354C267.062,33.797,264.232,28.694,259.881,25.559z
		 M226.003,64.267c0.113,2.045,0.148,4.106,0.148,6.172c0,63.077-48.004,135.805-135.799,135.805
		c-26.947,0-52.041-7.897-73.175-21.444c3.715,0.415,7.534,0.676,11.385,0.676c22.365,0,42.942-7.638,59.285-20.449
		c-20.908-0.367-38.522-14.186-44.602-33.144c2.916,0.557,5.911,0.864,8.96,0.864c4.367,0,8.584-0.592,12.582-1.682
		c-21.838-4.404-38.3-23.673-38.3-46.819c0-0.207,0-0.394,0-0.595c6.439,3.564,13.807,5.71,21.627,5.953
		c-12.806-8.561-21.219-23.182-21.219-39.735c0-8.742,2.351-16.933,6.462-23.981c23.522,28.875,58.705,47.87,98.378,49.856
		c-0.826-3.478-1.225-7.14-1.225-10.882c0-26.334,21.36-47.704,47.713-47.704c13.735,0,26.151,5.793,34.854,15.053
		c10.857-2.128,21.089-6.101,30.307-11.575c-3.57,11.136-11.148,20.491-20.982,26.397c9.645-1.14,18.834-3.704,27.4-7.52
		C243.422,49.137,235.34,57.539,226.003,64.267z"/>
</g>
</svg>
